{"glyphs":{"0":{"ha":1141,"x_min":61,"x_max":1080,"o":"m 533 361 l 608 361 l 608 964 l 533 964 l 533 361 m 68 -14 l 61 -14 l 61 1402 l 1023 1402 l 1023 1394 l 1080 1331 l 1080 -77 l 126 -77 l 68 -14 m 1010 0 l 1010 1389 l 73 1389 l 73 0 l 1010 0 m 464 351 l 464 1042 l 620 1042 l 620 351 l 464 351 z "},"1":{"ha":750,"x_min":61,"x_max":689,"o":"m 68 856 l 61 856 l 61 1227 l 140 1227 l 140 1316 l 217 1316 l 217 1402 l 632 1402 l 632 1394 l 689 1331 l 689 -77 l 282 -77 l 225 -14 l 217 -14 l 217 792 l 126 792 l 68 856 m 620 0 l 620 1389 l 229 1389 l 229 1302 l 152 1302 l 152 1214 l 73 1214 l 73 869 l 229 869 l 229 0 l 620 0 z "},"2":{"ha":1180,"x_min":61,"x_max":1119,"o":"m 533 361 l 1062 361 l 1062 353 l 1119 289 l 1119 -77 l 126 -77 l 68 -14 l 61 -14 l 61 751 l 178 751 l 178 882 l 647 882 l 647 964 l 126 964 l 68 1028 l 61 1028 l 61 1402 l 945 1402 l 945 1394 l 1002 1331 l 1002 1272 l 1062 1272 l 1062 1264 l 1119 1200 l 1119 574 l 1002 574 l 1002 444 l 533 444 l 533 361 m 1050 0 l 1050 347 l 464 347 l 464 521 l 933 521 l 933 651 l 1050 651 l 1050 1259 l 933 1259 l 933 1389 l 73 1389 l 73 1042 l 659 1042 l 659 868 l 190 868 l 190 738 l 73 738 l 73 0 l 1050 0 z "},"3":{"ha":1141,"x_min":61,"x_max":1080,"o":"m 963 1272 l 1023 1272 l 1023 1264 l 1080 1200 l 1080 688 l 1023 688 l 1023 684 l 1080 620 l 1080 53 l 963 53 l 963 -77 l 126 -77 l 68 -14 l 61 -14 l 61 365 l 608 365 l 608 444 l 126 444 l 68 507 l 61 507 l 61 883 l 608 883 l 608 964 l 126 964 l 68 1028 l 61 1028 l 61 1402 l 906 1402 l 906 1394 l 963 1331 l 963 1272 m 894 0 l 894 130 l 1010 130 l 1010 678 l 933 678 l 933 765 l 1010 765 l 1010 1259 l 894 1259 l 894 1389 l 73 1389 l 73 1042 l 620 1042 l 620 869 l 73 869 l 73 521 l 620 521 l 620 351 l 73 351 l 73 0 l 894 0 z "},"4":{"ha":1141,"x_min":61,"x_max":1080,"o":"m 533 883 l 608 883 l 608 1402 l 1023 1402 l 1023 1394 l 1080 1331 l 1080 -77 l 673 -77 l 616 -14 l 608 -14 l 608 444 l 126 444 l 68 507 l 61 507 l 61 1402 l 476 1402 l 476 1394 l 533 1331 l 533 883 m 1010 0 l 1010 1389 l 620 1389 l 620 869 l 464 869 l 464 1389 l 73 1389 l 73 521 l 620 521 l 620 0 l 1010 0 z "},"5":{"ha":1180,"x_min":61,"x_max":1119,"o":"m 1002 751 l 1062 751 l 1062 743 l 1119 680 l 1119 53 l 1002 53 l 1002 -77 l 126 -77 l 68 -14 l 61 -14 l 61 362 l 647 362 l 647 444 l 243 444 l 186 507 l 178 507 l 178 574 l 126 574 l 68 637 l 61 637 l 61 1402 l 1062 1402 l 1062 1394 l 1119 1331 l 1119 964 l 533 964 l 533 883 l 945 883 l 945 875 l 1002 811 l 1002 751 m 933 0 l 933 130 l 1050 130 l 1050 738 l 933 738 l 933 869 l 464 869 l 464 1042 l 1050 1042 l 1050 1389 l 73 1389 l 73 651 l 190 651 l 190 521 l 659 521 l 659 349 l 73 349 l 73 0 l 933 0 z "},"6":{"ha":1141,"x_min":61,"x_max":1080,"o":"m 533 365 l 608 365 l 608 444 l 533 444 l 533 365 m 533 884 l 1023 884 l 1023 876 l 1080 812 l 1080 -77 l 126 -77 l 68 -14 l 61 -14 l 61 1402 l 1023 1402 l 1023 1394 l 1080 1331 l 1080 964 l 533 964 l 533 884 m 1010 0 l 1010 871 l 464 871 l 464 1042 l 1010 1042 l 1010 1389 l 73 1389 l 73 0 l 1010 0 m 464 351 l 464 521 l 620 521 l 620 351 l 464 351 z "},"7":{"ha":1141,"x_min":61,"x_max":1080,"o":"m 68 1028 l 61 1028 l 61 1402 l 1023 1402 l 1023 1394 l 1080 1331 l 1080 -77 l 673 -77 l 616 -14 l 608 -14 l 608 964 l 126 964 l 68 1028 m 1010 0 l 1010 1389 l 73 1389 l 73 1042 l 620 1042 l 620 0 l 1010 0 z "},"8":{"ha":1141,"x_min":61,"x_max":1080,"o":"m 533 882 l 608 882 l 608 964 l 533 964 l 533 882 m 533 361 l 608 361 l 608 444 l 533 444 l 533 361 m 68 -14 l 61 -14 l 61 690 l 122 690 l 68 750 l 61 750 l 61 1402 l 1023 1402 l 1023 1394 l 1080 1331 l 1080 686 l 1023 686 l 1023 682 l 1080 618 l 1080 -77 l 126 -77 l 68 -14 m 1010 0 l 1010 677 l 933 677 l 933 764 l 1010 764 l 1010 1389 l 73 1389 l 73 764 l 152 764 l 152 677 l 73 677 l 73 0 l 1010 0 m 464 868 l 464 1042 l 620 1042 l 620 868 l 464 868 m 464 347 l 464 521 l 620 521 l 620 347 l 464 347 z "},"9":{"ha":1141,"x_min":61,"x_max":1080,"o":"m 533 883 l 608 883 l 608 964 l 533 964 l 533 883 m 68 507 l 61 507 l 61 1402 l 1023 1402 l 1023 1394 l 1080 1331 l 1080 -77 l 126 -77 l 68 -14 l 61 -14 l 61 365 l 608 365 l 608 444 l 126 444 l 68 507 m 1010 0 l 1010 1389 l 73 1389 l 73 521 l 620 521 l 620 351 l 73 351 l 73 0 l 1010 0 m 464 869 l 464 1042 l 620 1042 l 620 869 l 464 869 z "},"!":{"ha":517,"x_min":61,"x_max":456,"o":"m 68 -14 l 61 -14 l 61 317 l 122 317 l 68 377 l 61 377 l 61 1402 l 397 1402 l 397 1394 l 456 1331 l 456 313 l 397 313 l 397 309 l 456 245 l 456 -77 l 126 -77 l 68 -14 m 385 391 l 385 1389 l 73 1389 l 73 391 l 385 391 m 385 0 l 385 304 l 73 304 l 73 0 l 385 0 z "},"'":{"ha":444,"x_min":68,"x_max":376,"o":"m 75 1135 l 68 1135 l 68 1404 l 317 1404 l 317 1396 l 376 1332 l 376 947 l 244 947 l 187 1010 l 180 1010 l 180 1072 l 133 1072 l 75 1135 m 305 1024 l 305 1390 l 80 1390 l 80 1149 l 193 1149 l 193 1024 l 305 1024 z "},"/":{"ha":741,"x_min":68,"x_max":673,"o":"m 76 -16 l 68 -16 l 68 171 l 114 171 l 114 324 l 161 324 l 161 479 l 206 479 l 206 633 l 252 633 l 252 787 l 298 787 l 298 941 l 346 941 l 346 1096 l 392 1096 l 392 1249 l 437 1249 l 437 1404 l 606 1404 l 606 1393 l 673 1318 l 673 1142 l 627 1142 l 627 987 l 579 987 l 579 834 l 534 834 l 534 680 l 488 680 l 488 525 l 442 525 l 442 372 l 395 372 l 395 217 l 349 217 l 349 62 l 304 62 l 304 -91 l 145 -91 l 76 -16 m 221 0 l 221 155 l 267 155 l 267 309 l 313 309 l 313 463 l 359 463 l 359 617 l 407 617 l 407 772 l 452 772 l 452 925 l 498 925 l 498 1080 l 545 1080 l 545 1234 l 591 1234 l 591 1388 l 452 1388 l 452 1234 l 407 1234 l 407 1080 l 359 1080 l 359 925 l 313 925 l 313 772 l 267 772 l 267 617 l 221 617 l 221 463 l 175 463 l 175 309 l 129 309 l 129 155 l 83 155 l 83 0 l 221 0 z "},"?":{"ha":1103,"x_min":61,"x_max":1042,"o":"m 68 941 l 61 941 l 61 1402 l 983 1402 l 983 1394 l 1042 1331 l 1042 574 l 924 574 l 924 444 l 807 444 l 807 313 l 750 313 l 750 309 l 807 245 l 807 -77 l 477 -77 l 420 -14 l 412 -14 l 412 317 l 473 317 l 420 377 l 412 377 l 412 838 l 608 838 l 608 1008 l 456 1008 l 456 878 l 126 878 l 68 941 m 738 391 l 738 521 l 854 521 l 854 651 l 971 651 l 971 1389 l 73 1389 l 73 955 l 385 955 l 385 1085 l 620 1085 l 620 825 l 425 825 l 425 391 l 738 391 m 738 0 l 738 304 l 425 304 l 425 0 l 738 0 z "},"A":{"ha":1141,"x_min":61,"x_max":1080,"o":"m 68 -14 l 61 -14 l 61 1402 l 1023 1402 l 1023 1394 l 1080 1331 l 1080 -77 l 673 -77 l 616 -14 l 608 -14 l 608 354 l 533 354 l 533 -77 l 126 -77 l 68 -14 m 464 0 l 464 431 l 620 431 l 620 0 l 1010 0 l 1010 1389 l 73 1389 l 73 0 l 464 0 m 624 678 l 624 753 l 475 753 l 475 678 l 397 678 l 397 901 l 475 901 l 475 977 l 323 977 l 323 1124 l 475 1124 l 475 977 l 624 977 l 624 1124 l 776 1124 l 776 977 l 624 977 l 624 901 l 701 901 l 701 678 l 624 678 z "},"B":{"ha":1141,"x_min":61,"x_max":1080,"o":"m 533 882 l 608 882 l 608 964 l 533 964 l 533 882 m 533 361 l 608 361 l 608 444 l 533 444 l 533 361 m 68 -14 l 61 -14 l 61 1402 l 1023 1402 l 1023 1394 l 1080 1331 l 1080 686 l 1023 686 l 1023 682 l 1080 618 l 1080 -77 l 126 -77 l 68 -14 m 1010 0 l 1010 677 l 894 677 l 894 764 l 1010 764 l 1010 1389 l 73 1389 l 73 0 l 1010 0 m 464 868 l 464 1042 l 620 1042 l 620 868 l 464 868 m 464 347 l 464 521 l 620 521 l 620 347 l 464 347 z "},"C":{"ha":1219,"x_min":61,"x_max":1158,"o":"m 533 365 l 1101 365 l 1101 357 l 1158 293 l 1158 -77 l 126 -77 l 68 -14 l 61 -14 l 61 1402 l 1101 1402 l 1101 1394 l 1158 1331 l 1158 964 l 533 964 l 533 365 m 1089 0 l 1089 351 l 464 351 l 464 1042 l 1089 1042 l 1089 1389 l 73 1389 l 73 0 l 1089 0 z "},"D":{"ha":1180,"x_min":61,"x_max":1119,"o":"m 533 366 l 647 366 l 647 964 l 533 964 l 533 366 m 1002 1272 l 1062 1272 l 1062 1264 l 1119 1200 l 1119 53 l 1002 53 l 1002 -77 l 126 -77 l 68 -14 l 61 -14 l 61 1402 l 945 1402 l 945 1394 l 1002 1331 l 1002 1272 m 933 0 l 933 130 l 1050 130 l 1050 1259 l 933 1259 l 933 1389 l 73 1389 l 73 0 l 933 0 m 464 353 l 464 1042 l 659 1042 l 659 353 l 464 353 z "},"E":{"ha":1141,"x_min":61,"x_max":1080,"o":"m 533 365 l 1023 365 l 1023 357 l 1080 289 l 1080 -77 l 126 -77 l 68 -14 l 61 -14 l 61 1402 l 1023 1402 l 1023 1394 l 1080 1331 l 1080 964 l 533 964 l 533 868 l 1023 868 l 1023 860 l 1080 796 l 1080 444 l 533 444 l 533 365 m 1010 0 l 1010 351 l 464 351 l 464 521 l 1010 521 l 1010 854 l 464 854 l 464 1042 l 1010 1042 l 1010 1389 l 73 1389 l 73 0 l 1010 0 z "},"F":{"ha":1141,"x_min":61,"x_max":1080,"o":"m 533 882 l 1023 882 l 1023 873 l 1080 810 l 1080 444 l 533 444 l 533 -77 l 126 -77 l 68 -14 l 61 -14 l 61 1402 l 1023 1402 l 1023 1394 l 1080 1331 l 1080 964 l 533 964 l 533 882 m 464 0 l 464 521 l 1010 521 l 1010 868 l 464 868 l 464 1042 l 1010 1042 l 1010 1389 l 73 1389 l 73 0 l 464 0 z "},"G":{"ha":1259,"x_min":61,"x_max":1198,"o":"m 616 507 l 608 507 l 608 869 l 1141 869 l 1141 861 l 1198 810 l 1198 -77 l 243 -77 l 186 -14 l 178 -14 l 178 53 l 126 53 l 68 117 l 61 117 l 61 1272 l 178 1272 l 178 1402 l 1141 1402 l 1141 1394 l 1198 1331 l 1198 964 l 533 964 l 533 365 l 803 365 l 803 444 l 673 444 l 616 507 m 1128 0 l 1128 856 l 620 856 l 620 521 l 815 521 l 815 351 l 464 351 l 464 1042 l 1128 1042 l 1128 1389 l 190 1389 l 190 1259 l 73 1259 l 73 130 l 190 130 l 190 0 l 1128 0 z "},"H":{"ha":1219,"x_min":61,"x_max":1158,"o":"m 533 882 l 686 882 l 686 1402 l 1101 1402 l 1101 1394 l 1158 1331 l 1158 -77 l 750 -77 l 693 -14 l 686 -14 l 686 444 l 533 444 l 533 -77 l 126 -77 l 68 -14 l 61 -14 l 61 1402 l 476 1402 l 476 1394 l 533 1331 l 533 882 m 464 0 l 464 521 l 699 521 l 699 0 l 1089 0 l 1089 1389 l 699 1389 l 699 868 l 464 868 l 464 1389 l 73 1389 l 73 0 l 464 0 z "},"I":{"ha":594,"x_min":61,"x_max":533,"o":"m 68 -14 l 61 -14 l 61 1402 l 476 1402 l 476 1394 l 533 1331 l 533 -77 l 126 -77 l 68 -14 m 464 0 l 464 1389 l 73 1389 l 73 0 l 464 0 z "},"J":{"ha":1141,"x_min":61,"x_max":1080,"o":"m 342 1028 l 335 1028 l 335 1402 l 1023 1402 l 1023 1394 l 1080 1331 l 1080 -77 l 126 -77 l 68 -14 l 61 -14 l 61 366 l 608 366 l 608 964 l 399 964 l 342 1028 m 1010 0 l 1010 1389 l 347 1389 l 347 1042 l 620 1042 l 620 353 l 73 353 l 73 0 l 1010 0 z "},"K":{"ha":1180,"x_min":61,"x_max":1119,"o":"m 963 491 l 1062 491 l 1062 483 l 1119 419 l 1119 -77 l 712 -77 l 654 -14 l 647 -14 l 647 96 l 594 96 l 537 160 l 533 160 l 533 -77 l 126 -77 l 68 -14 l 61 -14 l 61 1402 l 476 1402 l 476 1394 l 533 1331 l 533 1229 l 647 1229 l 647 1402 l 1062 1402 l 1062 1394 l 1119 1331 l 1119 834 l 963 834 l 963 704 l 846 704 l 846 621 l 906 621 l 906 613 l 963 549 l 963 491 m 464 0 l 464 304 l 543 304 l 543 174 l 659 174 l 659 0 l 1050 0 l 1050 477 l 894 477 l 894 608 l 776 608 l 776 781 l 894 781 l 894 911 l 1050 911 l 1050 1389 l 659 1389 l 659 1215 l 543 1215 l 543 1085 l 464 1085 l 464 1389 l 73 1389 l 73 0 l 464 0 z "},"L":{"ha":1141,"x_min":61,"x_max":1080,"o":"m 533 366 l 1023 366 l 1023 358 l 1080 289 l 1080 -77 l 126 -77 l 68 -14 l 61 -14 l 61 1402 l 476 1402 l 476 1394 l 533 1331 l 533 366 m 1010 0 l 1010 353 l 464 353 l 464 1389 l 73 1389 l 73 0 l 1010 0 z "},"M":{"ha":1454,"x_min":61,"x_max":1393,"o":"m 689 1055 l 764 1055 l 764 1229 l 921 1229 l 921 1402 l 1336 1402 l 1336 1394 l 1393 1331 l 1393 -77 l 985 -77 l 928 -14 l 921 -14 l 921 168 l 594 168 l 537 232 l 533 232 l 533 -77 l 126 -77 l 68 -14 l 61 -14 l 61 1402 l 476 1402 l 476 1394 l 533 1331 l 533 1229 l 632 1229 l 632 1221 l 689 1157 l 689 1055 m 464 0 l 464 608 l 543 608 l 543 245 l 854 245 l 854 608 l 933 608 l 933 0 l 1324 0 l 1324 1389 l 933 1389 l 933 1215 l 776 1215 l 776 1042 l 620 1042 l 620 1215 l 464 1215 l 464 1389 l 73 1389 l 73 0 l 464 0 z "},"N":{"ha":1259,"x_min":61,"x_max":1198,"o":"m 689 968 l 726 968 l 726 1402 l 1141 1402 l 1141 1394 l 1198 1331 l 1198 -77 l 789 -77 l 732 -14 l 726 -14 l 726 167 l 633 167 l 576 231 l 568 231 l 568 357 l 533 357 l 533 -77 l 126 -77 l 68 -14 l 61 -14 l 61 1402 l 476 1402 l 476 1394 l 533 1331 l 533 1226 l 632 1226 l 632 1218 l 689 1154 l 689 968 m 464 0 l 464 434 l 581 434 l 581 244 l 738 244 l 738 0 l 1128 0 l 1128 1389 l 738 1389 l 738 955 l 620 955 l 620 1213 l 464 1213 l 464 1389 l 73 1389 l 73 0 l 464 0 z "},"O":{"ha":1298,"x_min":61,"x_max":1237,"o":"m 533 365 l 764 365 l 764 964 l 533 964 l 533 365 m 68 -14 l 61 -14 l 61 1402 l 1179 1402 l 1179 1394 l 1237 1331 l 1237 -77 l 126 -77 l 68 -14 m 1166 0 l 1166 1389 l 73 1389 l 73 0 l 1166 0 m 464 351 l 464 1042 l 776 1042 l 776 351 l 464 351 z "},"P":{"ha":1141,"x_min":61,"x_max":1080,"o":"m 533 882 l 608 882 l 608 964 l 533 964 l 533 882 m 68 -14 l 61 -14 l 61 1402 l 1023 1402 l 1023 1394 l 1080 1331 l 1080 444 l 533 444 l 533 -77 l 126 -77 l 68 -14 m 464 0 l 464 521 l 1010 521 l 1010 1389 l 73 1389 l 73 0 l 464 0 m 464 868 l 464 1042 l 620 1042 l 620 868 l 464 868 z "},"Q":{"ha":1375,"x_min":61,"x_max":1314,"o":"m 533 361 l 764 361 l 764 964 l 533 964 l 533 361 m 1237 361 l 1257 361 l 1257 353 l 1314 289 l 1314 -164 l 907 -164 l 849 -100 l 842 -100 l 842 -77 l 126 -77 l 68 -14 l 61 -14 l 61 1402 l 1179 1402 l 1179 1394 l 1237 1331 l 1237 361 m 1245 -87 l 1245 347 l 1166 347 l 1166 1389 l 73 1389 l 73 0 l 854 0 l 854 -87 l 1245 -87 m 464 347 l 464 1042 l 776 1042 l 776 347 l 464 347 z "},"R":{"ha":1141,"x_min":61,"x_max":1080,"o":"m 533 882 l 608 882 l 608 964 l 533 964 l 533 882 m 68 -14 l 61 -14 l 61 1402 l 1023 1402 l 1023 1394 l 1080 1331 l 1080 685 l 1023 685 l 1023 681 l 1080 617 l 1080 -77 l 673 -77 l 616 -14 l 608 -14 l 608 444 l 533 444 l 533 -77 l 126 -77 l 68 -14 m 464 0 l 464 521 l 620 521 l 620 0 l 1010 0 l 1010 675 l 894 675 l 894 762 l 1010 762 l 1010 1389 l 73 1389 l 73 0 l 464 0 m 464 868 l 464 1042 l 620 1042 l 620 868 l 464 868 z "},"S":{"ha":1180,"x_min":61,"x_max":1119,"o":"m 533 882 l 1062 882 l 1062 873 l 1119 810 l 1119 -77 l 126 -77 l 68 -14 l 61 -14 l 61 366 l 647 366 l 647 444 l 126 444 l 68 507 l 61 507 l 61 1402 l 1062 1402 l 1062 1394 l 1119 1331 l 1119 964 l 533 964 l 533 882 m 1050 0 l 1050 868 l 464 868 l 464 1042 l 1050 1042 l 1050 1389 l 73 1389 l 73 521 l 659 521 l 659 353 l 73 353 l 73 0 l 1050 0 z "},"T":{"ha":1141,"x_min":61,"x_max":1080,"o":"m 68 1028 l 61 1028 l 61 1402 l 1023 1402 l 1023 1394 l 1080 1331 l 1080 964 l 807 964 l 807 -77 l 399 -77 l 342 -14 l 335 -14 l 335 964 l 126 964 l 68 1028 m 738 0 l 738 1042 l 1010 1042 l 1010 1389 l 73 1389 l 73 1042 l 347 1042 l 347 0 l 738 0 z "},"U":{"ha":1219,"x_min":61,"x_max":1158,"o":"m 533 365 l 686 365 l 686 1402 l 1101 1402 l 1101 1394 l 1158 1331 l 1158 -77 l 126 -77 l 68 -14 l 61 -14 l 61 1402 l 476 1402 l 476 1394 l 533 1331 l 533 365 m 1089 0 l 1089 1389 l 699 1389 l 699 351 l 464 351 l 464 1389 l 73 1389 l 73 0 l 1089 0 z "},"V":{"ha":1180,"x_min":61,"x_max":1119,"o":"m 533 365 l 647 365 l 647 1402 l 1062 1402 l 1062 1394 l 1119 1331 l 1119 227 l 1002 227 l 1002 53 l 884 53 l 884 -77 l 359 -77 l 302 -14 l 296 -14 l 296 53 l 243 53 l 186 117 l 178 117 l 178 227 l 126 227 l 68 290 l 61 290 l 61 1402 l 476 1402 l 476 1394 l 533 1331 l 533 365 m 815 0 l 815 130 l 933 130 l 933 304 l 1050 304 l 1050 1389 l 659 1389 l 659 351 l 464 351 l 464 1389 l 73 1389 l 73 304 l 190 304 l 190 130 l 308 130 l 308 0 l 815 0 z "},"W":{"ha":1454,"x_min":61,"x_max":1393,"o":"m 533 1055 l 867 1055 l 867 1047 l 921 901 l 921 1402 l 1336 1402 l 1336 1394 l 1393 1331 l 1393 -77 l 985 -77 l 928 -14 l 921 -14 l 921 96 l 829 96 l 772 160 l 764 160 l 764 274 l 689 274 l 689 96 l 533 96 l 533 -77 l 126 -77 l 68 -14 l 61 -14 l 61 1402 l 476 1402 l 476 1394 l 533 1331 l 533 1055 m 464 0 l 464 174 l 620 174 l 620 351 l 776 351 l 776 174 l 933 174 l 933 0 l 1324 0 l 1324 1389 l 933 1389 l 933 781 l 854 781 l 854 1042 l 543 1042 l 543 781 l 464 781 l 464 1389 l 73 1389 l 73 0 l 464 0 z "},"X":{"ha":1375,"x_min":61,"x_max":1314,"o":"m 1158 491 l 1257 491 l 1257 483 l 1314 419 l 1314 -77 l 907 -77 l 849 -14 l 842 -14 l 842 96 l 789 96 l 732 160 l 726 160 l 726 227 l 651 227 l 651 96 l 533 96 l 533 -77 l 126 -77 l 68 -14 l 61 -14 l 61 491 l 217 491 l 217 621 l 335 621 l 335 704 l 282 704 l 225 768 l 217 768 l 217 834 l 126 834 l 68 898 l 61 898 l 61 1402 l 476 1402 l 476 1394 l 533 1331 l 533 1229 l 593 1229 l 593 1221 l 651 1157 l 651 1099 l 726 1099 l 726 1229 l 842 1229 l 842 1402 l 1257 1402 l 1257 1394 l 1314 1331 l 1314 834 l 1158 834 l 1158 704 l 1042 704 l 1042 621 l 1101 621 l 1101 613 l 1158 549 l 1158 491 m 464 0 l 464 174 l 581 174 l 581 304 l 738 304 l 738 174 l 854 174 l 854 0 l 1245 0 l 1245 477 l 1089 477 l 1089 608 l 971 608 l 971 781 l 1089 781 l 1089 911 l 1245 911 l 1245 1389 l 854 1389 l 854 1215 l 738 1215 l 738 1085 l 581 1085 l 581 1215 l 464 1215 l 464 1389 l 73 1389 l 73 911 l 229 911 l 229 781 l 347 781 l 347 608 l 229 608 l 229 477 l 73 477 l 73 0 l 464 0 z "},"Y":{"ha":1375,"x_min":61,"x_max":1314,"o":"m 651 884 l 726 884 l 726 1055 l 842 1055 l 842 1402 l 1257 1402 l 1257 1394 l 1314 1331 l 1314 704 l 1158 704 l 1158 598 l 1042 598 l 1042 444 l 924 444 l 924 -77 l 517 -77 l 458 -14 l 452 -14 l 452 444 l 399 444 l 342 507 l 335 507 l 335 598 l 282 598 l 225 662 l 217 662 l 217 704 l 126 704 l 68 768 l 61 768 l 61 1402 l 476 1402 l 476 1394 l 533 1331 l 533 1055 l 593 1055 l 593 1047 l 646 979 l 651 884 m 854 0 l 854 521 l 971 521 l 971 675 l 1089 675 l 1089 781 l 1245 781 l 1245 1389 l 854 1389 l 854 1042 l 738 1042 l 738 871 l 581 871 l 581 1042 l 464 1042 l 464 1389 l 73 1389 l 73 781 l 229 781 l 229 675 l 347 675 l 347 521 l 464 521 l 464 0 l 854 0 z "},"Z":{"ha":1219,"x_min":61,"x_max":1158,"o":"m 533 366 l 1101 366 l 1101 358 l 1158 289 l 1158 -77 l 126 -77 l 68 -14 l 61 -14 l 61 578 l 217 578 l 217 751 l 452 751 l 452 925 l 686 925 l 686 964 l 126 964 l 68 1028 l 61 1028 l 61 1402 l 1101 1402 l 1101 1394 l 1158 1331 l 1158 747 l 1002 747 l 1002 601 l 768 601 l 768 400 l 533 400 l 533 366 m 1089 0 l 1089 353 l 464 353 l 464 477 l 699 477 l 699 678 l 933 678 l 933 825 l 1089 825 l 1089 1389 l 73 1389 l 73 1042 l 699 1042 l 699 911 l 464 911 l 464 738 l 229 738 l 229 564 l 73 564 l 73 0 l 1089 0 z "},"[":{"ha":458,"x_min":22,"x_max":410,"o":"m 266 178 l 340 178 l 340 167 l 410 88 l 410 -66 l 102 -66 l 31 -16 l 22 -16 l 22 1401 l 340 1401 l 340 1392 l 410 1313 l 410 1130 l 266 1130 l 266 178 m 326 1 l 326 161 l 180 161 l 180 1225 l 326 1225 l 326 1385 l 37 1385 l 37 1 l 326 1 z "},"\\":{"ha":736,"x_min":68,"x_max":669,"o":"m 445 -9 l 434 -9 l 434 103 l 397 142 l 389 142 l 389 256 l 351 297 l 343 297 l 343 408 l 305 450 l 298 450 l 298 562 l 260 604 l 252 604 l 252 715 l 214 755 l 205 755 l 205 867 l 168 909 l 160 909 l 160 1020 l 121 1062 l 114 1062 l 114 1173 l 76 1214 l 68 1214 l 68 1400 l 235 1400 l 235 1390 l 302 1316 l 302 1213 l 347 1162 l 347 1059 l 393 1009 l 393 907 l 439 857 l 439 754 l 484 704 l 484 601 l 532 549 l 532 449 l 576 396 l 576 296 l 623 244 l 623 141 l 669 91 l 669 -71 l 511 -71 l 445 -9 m 587 7 l 587 159 l 541 159 l 541 312 l 495 312 l 495 465 l 449 465 l 449 620 l 404 620 l 404 772 l 357 772 l 357 925 l 311 925 l 311 1078 l 266 1078 l 266 1230 l 220 1230 l 220 1383 l 83 1383 l 83 1230 l 129 1230 l 129 1078 l 175 1078 l 175 925 l 220 925 l 220 772 l 266 772 l 266 620 l 311 620 l 311 465 l 357 465 l 357 312 l 404 312 l 404 159 l 449 159 l 449 7 l 587 7 z "},"]":{"ha":438,"x_min":22,"x_max":410,"o":"m 31 1207 l 22 1207 l 22 1400 l 340 1400 l 340 1390 l 410 1312 l 410 -81 l 102 -81 l 31 -18 l 22 -18 l 22 176 l 165 176 l 165 1128 l 102 1128 l 31 1207 m 326 0 l 326 1383 l 37 1383 l 37 1223 l 180 1223 l 180 160 l 37 160 l 37 0 l 326 0 z "},"a":{"ha":937,"x_min":61,"x_max":876,"o":"m 66 -11 l 61 -11 l 61 1122 l 830 1122 l 830 1115 l 876 1065 l 876 -62 l 551 -62 l 505 -11 l 498 -11 l 498 251 l 439 251 l 439 -62 l 113 -62 l 66 -11 m 384 0 l 384 312 l 507 312 l 507 0 l 821 0 l 821 1111 l 71 1111 l 71 0 l 384 0 m 514 509 l 514 567 l 399 567 l 399 509 l 339 509 l 339 681 l 399 681 l 399 741 l 281 741 l 281 856 l 399 856 l 399 741 l 514 741 l 514 856 l 632 856 l 632 741 l 514 741 l 514 681 l 575 681 l 575 509 l 514 509 z "},"b":{"ha":937,"x_min":61,"x_max":876,"o":"m 439 705 l 498 705 l 498 772 l 439 772 l 439 705 m 439 289 l 498 289 l 498 355 l 439 355 l 439 289 m 66 -11 l 61 -11 l 61 1122 l 830 1122 l 830 1115 l 876 1065 l 876 529 l 830 529 l 830 525 l 876 475 l 876 -62 l 113 -62 l 66 -11 m 821 0 l 821 521 l 727 521 l 727 590 l 821 590 l 821 1111 l 71 1111 l 71 0 l 821 0 m 384 694 l 384 833 l 507 833 l 507 694 l 384 694 m 384 278 l 384 416 l 507 416 l 507 278 l 384 278 z "},"c":{"ha":1000,"x_min":61,"x_max":939,"o":"m 439 289 l 894 289 l 894 282 l 939 231 l 939 -62 l 206 -62 l 161 -11 l 155 -11 l 155 42 l 113 42 l 66 94 l 61 94 l 61 1017 l 155 1017 l 155 1122 l 894 1122 l 894 1115 l 939 1065 l 939 772 l 439 772 l 439 289 m 884 0 l 884 278 l 384 278 l 384 833 l 884 833 l 884 1111 l 164 1111 l 164 1006 l 71 1006 l 71 104 l 164 104 l 164 0 l 884 0 z "},"d":{"ha":970,"x_min":61,"x_max":909,"o":"m 439 289 l 530 289 l 530 772 l 439 772 l 439 289 m 814 1017 l 861 1017 l 861 1012 l 909 960 l 909 42 l 814 42 l 814 -62 l 113 -62 l 66 -11 l 61 -11 l 61 1122 l 768 1122 l 768 1115 l 814 1065 l 814 1017 m 758 0 l 758 104 l 852 104 l 852 1006 l 758 1006 l 758 1111 l 71 1111 l 71 0 l 758 0 m 384 278 l 384 833 l 540 833 l 540 278 l 384 278 z "},"e":{"ha":937,"x_min":61,"x_max":876,"o":"m 439 289 l 830 289 l 830 282 l 876 231 l 876 -62 l 113 -62 l 66 -11 l 61 -11 l 61 1122 l 830 1122 l 830 1115 l 876 1065 l 876 772 l 439 772 l 439 705 l 830 705 l 830 699 l 876 648 l 876 355 l 439 355 l 439 289 m 821 0 l 821 278 l 384 278 l 384 416 l 821 416 l 821 694 l 384 694 l 384 833 l 821 833 l 821 1111 l 71 1111 l 71 0 l 821 0 z "},"f":{"ha":937,"x_min":61,"x_max":876,"o":"m 439 705 l 830 705 l 830 699 l 876 648 l 876 355 l 439 355 l 439 -62 l 113 -62 l 66 -11 l 61 -11 l 61 1122 l 830 1122 l 830 1115 l 876 1065 l 876 772 l 439 772 l 439 705 m 384 0 l 384 416 l 821 416 l 821 694 l 384 694 l 384 833 l 821 833 l 821 1111 l 71 1111 l 71 0 l 384 0 z "},"g":{"ha":1031,"x_min":61,"x_max":970,"o":"m 505 406 l 498 406 l 498 705 l 924 705 l 924 699 l 970 648 l 970 -62 l 206 -62 l 161 -11 l 155 -11 l 155 42 l 113 42 l 66 94 l 61 94 l 61 1017 l 155 1017 l 155 1122 l 924 1122 l 924 1115 l 970 1065 l 970 772 l 439 772 l 439 289 l 654 289 l 654 355 l 551 355 l 505 406 m 914 0 l 914 694 l 507 694 l 507 416 l 665 416 l 665 278 l 384 278 l 384 833 l 914 833 l 914 1111 l 164 1111 l 164 1006 l 71 1006 l 71 104 l 164 104 l 164 0 l 914 0 z "},"h":{"ha":1000,"x_min":61,"x_max":939,"o":"m 439 705 l 562 705 l 562 1122 l 894 1122 l 894 1115 l 939 1065 l 939 -62 l 613 -62 l 567 -11 l 562 -11 l 562 355 l 439 355 l 439 -62 l 113 -62 l 66 -11 l 61 -11 l 61 1122 l 393 1122 l 393 1115 l 439 1065 l 439 705 m 384 0 l 384 416 l 571 416 l 571 0 l 884 0 l 884 1111 l 571 1111 l 571 694 l 384 694 l 384 1111 l 71 1111 l 71 0 l 384 0 z "},"i":{"ha":500,"x_min":61,"x_max":439,"o":"m 66 -11 l 61 -11 l 61 1122 l 393 1122 l 393 1115 l 439 1065 l 439 -62 l 113 -62 l 66 -11 m 384 0 l 384 1111 l 71 1111 l 71 0 l 384 0 z "},"j":{"ha":937,"x_min":61,"x_max":876,"o":"m 286 822 l 279 822 l 279 1122 l 830 1122 l 830 1115 l 876 1065 l 876 -62 l 113 -62 l 66 -11 l 61 -11 l 61 289 l 498 289 l 498 772 l 332 772 l 286 822 m 821 0 l 821 1111 l 289 1111 l 289 833 l 507 833 l 507 278 l 71 278 l 71 0 l 821 0 z "},"k":{"ha":970,"x_min":61,"x_max":909,"o":"m 783 393 l 861 393 l 861 387 l 909 335 l 909 -62 l 581 -62 l 536 -11 l 530 -11 l 530 77 l 488 77 l 442 127 l 439 127 l 439 -62 l 113 -62 l 66 -11 l 61 -11 l 61 1122 l 393 1122 l 393 1115 l 439 1065 l 439 983 l 530 983 l 530 1122 l 861 1122 l 861 1115 l 909 1065 l 909 667 l 783 667 l 783 563 l 689 563 l 689 496 l 738 496 l 738 491 l 783 439 l 783 393 m 384 0 l 384 243 l 445 243 l 445 138 l 540 138 l 540 0 l 852 0 l 852 382 l 727 382 l 727 486 l 633 486 l 633 625 l 727 625 l 727 730 l 852 730 l 852 1111 l 540 1111 l 540 972 l 445 972 l 445 868 l 384 868 l 384 1111 l 71 1111 l 71 0 l 384 0 z "},"l":{"ha":937,"x_min":61,"x_max":876,"o":"m 439 289 l 830 289 l 830 282 l 876 231 l 876 -62 l 113 -62 l 66 -11 l 61 -11 l 61 1122 l 393 1122 l 393 1115 l 439 1065 l 439 289 m 821 0 l 821 278 l 384 278 l 384 1111 l 71 1111 l 71 0 l 821 0 z "},"m":{"ha":1188,"x_min":61,"x_max":1127,"o":"m 564 844 l 624 844 l 624 983 l 749 983 l 749 1122 l 1080 1122 l 1080 1115 l 1127 1065 l 1127 -62 l 800 -62 l 754 -11 l 749 -11 l 749 285 l 488 285 l 442 336 l 439 336 l 439 -62 l 113 -62 l 66 -11 l 61 -11 l 61 1122 l 393 1122 l 393 1115 l 439 1065 l 439 983 l 518 983 l 518 977 l 564 925 l 564 844 m 384 0 l 384 486 l 445 486 l 445 347 l 696 347 l 696 486 l 758 486 l 758 0 l 1070 0 l 1070 1111 l 758 1111 l 758 972 l 633 972 l 633 833 l 507 833 l 507 972 l 384 972 l 384 1111 l 71 1111 l 71 0 l 384 0 z "},"n":{"ha":1062,"x_min":61,"x_max":1001,"o":"m 532 879 l 581 879 l 581 872 l 624 825 l 624 1122 l 956 1122 l 956 1115 l 1001 1065 l 1001 -62 l 675 -62 l 629 -11 l 624 -11 l 624 77 l 581 77 l 536 127 l 530 127 l 530 182 l 488 182 l 442 232 l 439 232 l 439 -62 l 113 -62 l 66 -11 l 61 -11 l 61 1122 l 393 1122 l 393 1115 l 439 1065 l 439 983 l 487 983 l 487 977 l 532 925 l 532 879 m 384 0 l 384 382 l 445 382 l 445 243 l 540 243 l 540 138 l 633 138 l 633 0 l 945 0 l 945 1111 l 633 1111 l 633 730 l 571 730 l 571 868 l 477 868 l 477 972 l 384 972 l 384 1111 l 71 1111 l 71 0 l 384 0 z "},"o":{"ha":1062,"x_min":61,"x_max":1001,"o":"m 439 289 l 624 289 l 624 772 l 439 772 l 439 289 m 909 1017 l 956 1017 l 956 1012 l 1001 960 l 1001 42 l 909 42 l 909 -62 l 206 -62 l 161 -11 l 155 -11 l 155 42 l 113 42 l 66 94 l 61 94 l 61 1017 l 155 1017 l 155 1122 l 861 1122 l 861 1115 l 909 1065 l 909 1017 m 852 0 l 852 104 l 945 104 l 945 1006 l 852 1006 l 852 1111 l 164 1111 l 164 1006 l 71 1006 l 71 104 l 164 104 l 164 0 l 852 0 m 384 278 l 384 833 l 633 833 l 633 278 l 384 278 z "},"p":{"ha":951,"x_min":68,"x_max":883,"o":"m 446 705 l 505 705 l 505 772 l 446 772 l 446 705 m 73 -11 l 68 -11 l 68 1122 l 837 1122 l 837 1115 l 883 1065 l 883 355 l 446 355 l 446 -62 l 119 -62 l 73 -11 m 391 0 l 391 416 l 827 416 l 827 1111 l 77 1111 l 77 0 l 391 0 m 391 694 l 391 833 l 514 833 l 514 694 l 391 694 z "},"q":{"ha":1126,"x_min":61,"x_max":1065,"o":"m 439 289 l 624 289 l 624 772 l 439 772 l 439 289 m 1001 289 l 1019 289 l 1019 282 l 1065 231 l 1065 -132 l 738 -132 l 692 -80 l 686 -80 l 686 -62 l 206 -62 l 161 -11 l 155 -11 l 155 42 l 113 42 l 66 94 l 61 94 l 61 1017 l 155 1017 l 155 1122 l 861 1122 l 861 1115 l 909 1065 l 909 1017 l 956 1017 l 956 1012 l 1001 960 l 1001 289 m 1008 -69 l 1008 278 l 945 278 l 945 1006 l 852 1006 l 852 1111 l 164 1111 l 164 1006 l 71 1006 l 71 104 l 164 104 l 164 0 l 696 0 l 696 -69 l 1008 -69 m 384 278 l 384 833 l 633 833 l 633 278 l 384 278 z "},"r":{"ha":937,"x_min":61,"x_max":876,"o":"m 439 705 l 498 705 l 498 772 l 439 772 l 439 705 m 66 -11 l 61 -11 l 61 1122 l 830 1122 l 830 1115 l 876 1065 l 876 425 l 830 425 l 830 420 l 876 370 l 876 -62 l 551 -62 l 505 -11 l 498 -11 l 498 355 l 439 355 l 439 -62 l 113 -62 l 66 -11 m 384 0 l 384 416 l 507 416 l 507 0 l 821 0 l 821 416 l 727 416 l 727 486 l 821 486 l 821 1111 l 71 1111 l 71 0 l 384 0 m 384 694 l 384 833 l 507 833 l 507 694 l 384 694 z "},"s":{"ha":970,"x_min":61,"x_max":909,"o":"m 439 705 l 861 705 l 861 699 l 909 648 l 909 -62 l 113 -62 l 66 -11 l 61 -11 l 61 289 l 530 289 l 530 355 l 113 355 l 66 406 l 61 406 l 61 1122 l 861 1122 l 861 1115 l 909 1065 l 909 772 l 439 772 l 439 705 m 852 0 l 852 694 l 384 694 l 384 833 l 852 833 l 852 1111 l 71 1111 l 71 416 l 540 416 l 540 278 l 71 278 l 71 0 l 852 0 z "},"t":{"ha":937,"x_min":61,"x_max":876,"o":"m 66 822 l 61 822 l 61 1122 l 830 1122 l 830 1115 l 876 1065 l 876 772 l 658 772 l 658 -62 l 332 -62 l 286 -11 l 279 -11 l 279 772 l 113 772 l 66 822 m 602 0 l 602 833 l 821 833 l 821 1111 l 71 1111 l 71 833 l 289 833 l 289 0 l 602 0 z "},"u":{"ha":1000,"x_min":61,"x_max":939,"o":"m 439 289 l 562 289 l 562 1122 l 894 1122 l 894 1115 l 939 1065 l 939 -62 l 113 -62 l 66 -11 l 61 -11 l 61 1122 l 393 1122 l 393 1115 l 439 1065 l 439 289 m 884 0 l 884 1111 l 571 1111 l 571 278 l 384 278 l 384 1111 l 71 1111 l 71 0 l 884 0 z "},"v":{"ha":970,"x_min":61,"x_max":909,"o":"m 439 289 l 530 289 l 530 1122 l 861 1122 l 861 1115 l 909 1065 l 909 182 l 814 182 l 814 42 l 720 42 l 720 -62 l 300 -62 l 254 -11 l 250 -11 l 250 42 l 206 42 l 161 94 l 155 94 l 155 182 l 113 182 l 66 232 l 61 232 l 61 1122 l 393 1122 l 393 1115 l 439 1065 l 439 289 m 665 0 l 665 104 l 758 104 l 758 243 l 852 243 l 852 1111 l 540 1111 l 540 278 l 384 278 l 384 1111 l 71 1111 l 71 243 l 164 243 l 164 104 l 259 104 l 259 0 l 665 0 z "},"w":{"ha":1188,"x_min":61,"x_max":1127,"o":"m 439 774 l 705 774 l 705 768 l 749 720 l 749 1122 l 1080 1122 l 1080 1115 l 1127 1065 l 1127 -62 l 800 -62 l 754 -11 l 749 -11 l 749 77 l 675 77 l 629 127 l 624 127 l 624 216 l 564 216 l 564 77 l 439 77 l 439 -62 l 113 -62 l 66 -11 l 61 -11 l 61 1122 l 393 1122 l 393 1115 l 439 1065 l 439 774 m 384 0 l 384 138 l 507 138 l 507 278 l 633 278 l 633 138 l 758 138 l 758 0 l 1070 0 l 1070 1111 l 758 1111 l 758 625 l 696 625 l 696 764 l 445 764 l 445 625 l 384 625 l 384 1111 l 71 1111 l 71 0 l 384 0 z "},"x":{"ha":1126,"x_min":61,"x_max":1065,"o":"m 939 393 l 1019 393 l 1019 387 l 1065 335 l 1065 -62 l 738 -62 l 692 -11 l 686 -11 l 686 77 l 644 77 l 598 127 l 591 127 l 591 182 l 532 182 l 532 77 l 439 77 l 439 -62 l 113 -62 l 66 -11 l 61 -11 l 61 393 l 186 393 l 186 496 l 279 496 l 279 563 l 237 563 l 191 614 l 186 614 l 186 667 l 113 667 l 66 719 l 61 719 l 61 1122 l 393 1122 l 393 1115 l 439 1065 l 439 983 l 487 983 l 487 977 l 532 925 l 532 879 l 591 879 l 591 983 l 686 983 l 686 1122 l 1019 1122 l 1019 1115 l 1065 1065 l 1065 667 l 939 667 l 939 563 l 845 563 l 845 496 l 894 496 l 894 491 l 939 439 l 939 393 m 384 0 l 384 138 l 477 138 l 477 243 l 602 243 l 602 138 l 696 138 l 696 0 l 1008 0 l 1008 382 l 884 382 l 884 486 l 789 486 l 789 625 l 884 625 l 884 730 l 1008 730 l 1008 1111 l 696 1111 l 696 972 l 602 972 l 602 868 l 477 868 l 477 972 l 384 972 l 384 1111 l 71 1111 l 71 730 l 195 730 l 195 625 l 289 625 l 289 486 l 195 486 l 195 382 l 71 382 l 71 0 l 384 0 z "},"y":{"ha":1126,"x_min":61,"x_max":1065,"o":"m 532 741 l 591 741 l 591 844 l 686 844 l 686 1122 l 1019 1122 l 1019 1115 l 1065 1065 l 1065 563 l 939 563 l 939 458 l 845 458 l 845 355 l 751 355 l 751 -62 l 425 -62 l 380 -11 l 373 -11 l 373 355 l 332 355 l 286 406 l 279 406 l 279 458 l 237 458 l 191 510 l 186 510 l 186 563 l 113 563 l 66 614 l 61 614 l 61 1122 l 393 1122 l 393 1115 l 439 1065 l 439 844 l 487 844 l 487 838 l 532 787 l 532 741 m 696 0 l 696 416 l 789 416 l 789 521 l 884 521 l 884 625 l 1008 625 l 1008 1111 l 696 1111 l 696 833 l 602 833 l 602 730 l 477 730 l 477 833 l 384 833 l 384 1111 l 71 1111 l 71 625 l 195 625 l 195 521 l 289 521 l 289 416 l 384 416 l 384 0 l 696 0 z "},"z":{"ha":1000,"x_min":61,"x_max":939,"o":"m 439 289 l 894 289 l 894 282 l 939 231 l 939 -62 l 113 -62 l 66 -11 l 61 -11 l 61 463 l 186 463 l 186 601 l 373 601 l 373 741 l 562 741 l 562 772 l 113 772 l 66 822 l 61 822 l 61 1122 l 894 1122 l 894 1115 l 939 1065 l 939 598 l 814 598 l 814 458 l 627 458 l 627 320 l 439 320 l 439 289 m 884 0 l 884 278 l 384 278 l 384 382 l 571 382 l 571 521 l 758 521 l 758 659 l 884 659 l 884 1111 l 71 1111 l 71 833 l 571 833 l 571 730 l 384 730 l 384 590 l 195 590 l 195 452 l 71 452 l 71 0 l 884 0 z "},"{":{"ha":517,"x_min":14,"x_max":495,"o":"m 351 182 l 425 182 l 495 94 l 495 -75 l 187 -75 l 110 -9 l 110 442 l 14 518 l 14 921 l 110 921 l 110 1401 l 425 1401 l 495 1312 l 495 1128 l 351 1128 l 351 707 l 258 707 l 258 658 l 282 658 l 351 570 l 351 182 m 410 0 l 410 165 l 266 165 l 266 642 l 170 642 l 170 800 l 266 800 l 266 1222 l 410 1222 l 410 1385 l 125 1385 l 125 905 l 28 905 l 28 534 l 125 534 l 125 0 l 410 0 z "},"|":{"ha":391,"x_min":68,"x_max":323,"o":"m 77 -11 l 68 -11 l 68 1396 l 248 1396 l 248 1385 l 323 1309 l 323 -88 l 152 -88 l 77 -11 m 233 7 l 233 1379 l 83 1379 l 83 7 l 233 7 z "},"}":{"ha":517,"x_min":9,"x_max":495,"o":"m 397 925 l 495 838 l 495 441 l 397 441 l 397 -66 l 90 -66 l 18 -15 l 9 -15 l 9 178 l 153 178 l 153 659 l 250 659 l 250 707 l 153 787 l 153 1135 l 90 1135 l 9 1213 l 9 1407 l 328 1407 l 397 1318 l 397 925 m 313 1 l 313 536 l 408 536 l 408 909 l 313 909 l 313 1390 l 24 1390 l 24 1229 l 167 1229 l 167 803 l 264 803 l 264 642 l 167 642 l 167 161 l 24 161 l 24 1 l 313 1 z "},"Æ":{"ha":2181,"x_min":68,"x_max":2113,"o":"m 75 -14 l 68 -14 l 68 1402 l 1029 1402 l 1029 1394 l 1086 1331 l 1086 -77 l 680 -77 l 623 -14 l 614 -14 l 614 354 l 540 354 l 540 -77 l 133 -77 l 75 -14 m 471 0 l 471 431 l 627 431 l 627 0 l 1017 0 l 1017 1389 l 80 1389 l 80 0 l 471 0 m 631 678 l 631 753 l 481 753 l 481 678 l 404 678 l 404 901 l 481 901 l 481 977 l 330 977 l 330 1124 l 481 1124 l 481 977 l 631 977 l 631 1124 l 783 1124 l 783 977 l 631 977 l 631 901 l 708 901 l 708 678 l 631 678 m 1567 365 l 2056 365 l 2056 357 l 2113 289 l 2113 -77 l 1160 -77 l 1101 -14 l 1095 -14 l 1095 1402 l 2056 1402 l 2056 1394 l 2113 1331 l 2113 964 l 1567 964 l 1567 868 l 2056 868 l 2056 860 l 2113 796 l 2113 444 l 1567 444 l 1567 365 m 2044 0 l 2044 351 l 1497 351 l 1497 521 l 2044 521 l 2044 854 l 1497 854 l 1497 1042 l 2044 1042 l 2044 1389 l 1107 1389 l 1107 0 l 2044 0 z "},"æ":{"ha":1766,"x_min":68,"x_max":1698,"o":"m 73 -11 l 68 -11 l 68 1122 l 837 1122 l 837 1115 l 883 1065 l 883 -62 l 557 -62 l 511 -11 l 505 -11 l 505 251 l 446 251 l 446 -62 l 119 -62 l 73 -11 m 391 0 l 391 312 l 514 312 l 514 0 l 827 0 l 827 1111 l 77 1111 l 77 0 l 391 0 m 521 509 l 521 567 l 406 567 l 406 509 l 346 509 l 346 681 l 406 681 l 406 741 l 288 741 l 288 856 l 406 856 l 406 741 l 521 741 l 521 856 l 639 856 l 639 741 l 521 741 l 521 681 l 582 681 l 582 509 l 521 509 m 1261 289 l 1652 289 l 1652 282 l 1698 231 l 1698 -62 l 935 -62 l 888 -11 l 883 -11 l 883 1122 l 1652 1122 l 1652 1115 l 1698 1065 l 1698 772 l 1261 772 l 1261 705 l 1652 705 l 1652 699 l 1698 648 l 1698 355 l 1261 355 l 1261 289 m 1643 0 l 1643 278 l 1206 278 l 1206 416 l 1643 416 l 1643 694 l 1206 694 l 1206 833 l 1643 833 l 1643 1111 l 892 1111 l 892 0 l 1643 0 z "},"Œ":{"ha":2338,"x_min":68,"x_max":2271,"o":"m 540 365 l 770 365 l 770 964 l 540 964 l 540 365 m 75 -14 l 68 -14 l 68 1402 l 1185 1402 l 1185 1394 l 1244 1331 l 1244 -77 l 133 -77 l 75 -14 m 1173 0 l 1173 1389 l 80 1389 l 80 0 l 1173 0 m 471 351 l 471 1042 l 783 1042 l 783 351 l 471 351 m 1724 365 l 2214 365 l 2214 357 l 2271 289 l 2271 -77 l 1317 -77 l 1259 -14 l 1252 -14 l 1252 1402 l 2214 1402 l 2214 1394 l 2271 1331 l 2271 964 l 1724 964 l 1724 868 l 2214 868 l 2214 860 l 2271 796 l 2271 444 l 1724 444 l 1724 365 m 2201 0 l 2201 351 l 1655 351 l 1655 521 l 2201 521 l 2201 854 l 1655 854 l 1655 1042 l 2201 1042 l 2201 1389 l 1264 1389 l 1264 0 l 2201 0 z "},"¼":{"ha":1969,"x_min":68,"x_max":1902,"o":"m 73 1033 l 68 1033 l 68 1284 l 122 1284 l 122 1343 l 174 1343 l 174 1402 l 454 1402 l 454 1396 l 493 1353 l 493 404 l 218 404 l 179 447 l 174 447 l 174 990 l 112 990 l 73 1033 m 446 456 l 446 1393 l 182 1393 l 182 1334 l 130 1334 l 130 1275 l 77 1275 l 77 1042 l 182 1042 l 182 456 l 446 456 m 496 -16 l 488 -16 l 488 171 l 534 171 l 534 324 l 582 324 l 582 479 l 627 479 l 627 633 l 673 633 l 673 787 l 719 787 l 719 941 l 766 941 l 766 1096 l 812 1096 l 812 1249 l 857 1249 l 857 1404 l 1027 1404 l 1027 1393 l 1093 1318 l 1093 1142 l 1047 1142 l 1047 987 l 1000 987 l 1000 834 l 955 834 l 955 680 l 909 680 l 909 525 l 863 525 l 863 372 l 815 372 l 815 217 l 769 217 l 769 62 l 724 62 l 724 -91 l 566 -91 l 496 -16 m 642 0 l 642 155 l 688 155 l 688 309 l 734 309 l 734 463 l 780 463 l 780 617 l 827 617 l 827 772 l 872 772 l 872 925 l 918 925 l 918 1080 l 966 1080 l 966 1234 l 1012 1234 l 1012 1388 l 872 1388 l 872 1234 l 827 1234 l 827 1080 l 780 1080 l 780 925 l 734 925 l 734 772 l 688 772 l 688 617 l 642 617 l 642 463 l 595 463 l 595 309 l 549 309 l 549 155 l 503 155 l 503 0 l 642 0 m 1459 703 l 1519 703 l 1519 1124 l 1856 1124 l 1856 1117 l 1902 1066 l 1902 -76 l 1572 -76 l 1526 -25 l 1519 -25 l 1519 346 l 1129 346 l 1082 398 l 1076 398 l 1076 1124 l 1413 1124 l 1413 1117 l 1459 1066 l 1459 703 m 1846 -14 l 1846 1113 l 1529 1113 l 1529 692 l 1403 692 l 1403 1113 l 1086 1113 l 1086 409 l 1529 409 l 1529 -14 l 1846 -14 z "},"½":{"ha":2001,"x_min":68,"x_max":1933,"o":"m 73 1033 l 68 1033 l 68 1284 l 122 1284 l 122 1343 l 174 1343 l 174 1402 l 454 1402 l 454 1396 l 493 1353 l 493 404 l 218 404 l 179 447 l 174 447 l 174 990 l 112 990 l 73 1033 m 446 456 l 446 1393 l 182 1393 l 182 1334 l 130 1334 l 130 1275 l 77 1275 l 77 1042 l 182 1042 l 182 456 l 446 456 m 496 -16 l 488 -16 l 488 171 l 534 171 l 534 324 l 582 324 l 582 479 l 627 479 l 627 633 l 673 633 l 673 787 l 719 787 l 719 941 l 766 941 l 766 1096 l 812 1096 l 812 1249 l 857 1249 l 857 1404 l 1027 1404 l 1027 1393 l 1093 1318 l 1093 1142 l 1047 1142 l 1047 987 l 1000 987 l 1000 834 l 955 834 l 955 680 l 909 680 l 909 525 l 863 525 l 863 372 l 815 372 l 815 217 l 769 217 l 769 62 l 724 62 l 724 -91 l 566 -91 l 496 -16 m 642 0 l 642 155 l 688 155 l 688 309 l 734 309 l 734 463 l 780 463 l 780 617 l 827 617 l 827 772 l 872 772 l 872 925 l 918 925 l 918 1080 l 966 1080 l 966 1234 l 1012 1234 l 1012 1388 l 872 1388 l 872 1234 l 827 1234 l 827 1080 l 780 1080 l 780 925 l 734 925 l 734 772 l 688 772 l 688 617 l 642 617 l 642 463 l 595 463 l 595 309 l 549 309 l 549 155 l 503 155 l 503 0 l 642 0 m 1459 279 l 1887 279 l 1887 272 l 1933 221 l 1933 -76 l 1129 -76 l 1082 -25 l 1076 -25 l 1076 596 l 1171 596 l 1171 702 l 1551 702 l 1551 769 l 1129 769 l 1082 820 l 1076 820 l 1076 1124 l 1793 1124 l 1793 1117 l 1839 1066 l 1839 1018 l 1887 1018 l 1887 1012 l 1933 960 l 1933 452 l 1839 452 l 1839 346 l 1459 346 l 1459 279 m 1877 -14 l 1877 268 l 1403 268 l 1403 409 l 1783 409 l 1783 515 l 1877 515 l 1877 1007 l 1783 1007 l 1783 1113 l 1086 1113 l 1086 831 l 1561 831 l 1561 691 l 1181 691 l 1181 585 l 1086 585 l 1086 -14 l 1877 -14 z "},"¾":{"ha":2233,"x_min":68,"x_max":2165,"o":"m 677 1314 l 718 1314 l 718 1309 l 756 1266 l 756 920 l 718 920 l 718 917 l 756 874 l 756 491 l 677 491 l 677 404 l 112 404 l 73 447 l 68 447 l 68 702 l 437 702 l 437 755 l 112 755 l 73 798 l 68 798 l 68 1051 l 437 1051 l 437 1106 l 112 1106 l 73 1149 l 68 1149 l 68 1402 l 639 1402 l 639 1396 l 677 1353 l 677 1314 m 631 456 l 631 544 l 709 544 l 709 913 l 657 913 l 657 972 l 709 972 l 709 1305 l 631 1305 l 631 1393 l 77 1393 l 77 1158 l 446 1158 l 446 1042 l 77 1042 l 77 807 l 446 807 l 446 693 l 77 693 l 77 456 l 631 456 m 760 -16 l 751 -16 l 751 171 l 798 171 l 798 324 l 845 324 l 845 479 l 890 479 l 890 633 l 936 633 l 936 787 l 982 787 l 982 941 l 1029 941 l 1029 1096 l 1076 1096 l 1076 1249 l 1120 1249 l 1120 1404 l 1290 1404 l 1290 1393 l 1356 1318 l 1356 1142 l 1310 1142 l 1310 987 l 1263 987 l 1263 834 l 1218 834 l 1218 680 l 1172 680 l 1172 525 l 1126 525 l 1126 372 l 1078 372 l 1078 217 l 1032 217 l 1032 62 l 987 62 l 987 -91 l 829 -91 l 760 -16 m 905 0 l 905 155 l 951 155 l 951 309 l 997 309 l 997 463 l 1043 463 l 1043 617 l 1090 617 l 1090 772 l 1135 772 l 1135 925 l 1181 925 l 1181 1080 l 1229 1080 l 1229 1234 l 1275 1234 l 1275 1388 l 1135 1388 l 1135 1234 l 1090 1234 l 1090 1080 l 1043 1080 l 1043 925 l 997 925 l 997 772 l 951 772 l 951 617 l 905 617 l 905 463 l 859 463 l 859 309 l 812 309 l 812 155 l 766 155 l 766 0 l 905 0 m 1722 702 l 1783 702 l 1783 1123 l 2119 1123 l 2119 1116 l 2165 1065 l 2165 -76 l 1835 -76 l 1789 -25 l 1783 -25 l 1783 346 l 1392 346 l 1345 397 l 1339 397 l 1339 1123 l 1676 1123 l 1676 1116 l 1722 1065 l 1722 702 m 2109 -14 l 2109 1112 l 1793 1112 l 1793 691 l 1666 691 l 1666 1112 l 1349 1112 l 1349 408 l 1793 408 l 1793 -14 l 2109 -14 z "},"œ":{"ha":1903,"x_min":68,"x_max":1835,"o":"m 446 289 l 631 289 l 631 772 l 446 772 l 446 289 m 916 1017 l 963 1017 l 963 1012 l 1008 960 l 1008 42 l 916 42 l 916 -62 l 213 -62 l 168 -11 l 161 -11 l 161 42 l 119 42 l 73 94 l 68 94 l 68 1017 l 161 1017 l 161 1122 l 868 1122 l 868 1115 l 916 1065 l 916 1017 m 859 0 l 859 104 l 952 104 l 952 1006 l 859 1006 l 859 1111 l 171 1111 l 171 1006 l 77 1006 l 77 104 l 171 104 l 171 0 l 859 0 m 391 278 l 391 833 l 640 833 l 640 278 l 391 278 m 1398 289 l 1789 289 l 1789 282 l 1835 231 l 1835 -62 l 1072 -62 l 1025 -11 l 1020 -11 l 1020 1122 l 1789 1122 l 1789 1115 l 1835 1065 l 1835 772 l 1398 772 l 1398 705 l 1789 705 l 1789 699 l 1835 648 l 1835 355 l 1398 355 l 1398 289 m 1780 0 l 1780 278 l 1343 278 l 1343 416 l 1780 416 l 1780 694 l 1343 694 l 1343 833 l 1780 833 l 1780 1111 l 1029 1111 l 1029 0 l 1780 0 z "},"™":{"ha":1276,"x_min":68,"x_max":1208,"o":"m 71 1230 l 68 1230 l 68 1402 l 511 1402 l 511 1398 l 537 1370 l 537 1200 l 412 1200 l 412 720 l 224 720 l 197 750 l 194 750 l 194 1200 l 98 1200 l 71 1230 m 380 755 l 380 1236 l 506 1236 l 506 1396 l 73 1396 l 73 1236 l 199 1236 l 199 755 l 380 755 m 883 1242 l 918 1242 l 918 1322 l 990 1322 l 990 1402 l 1181 1402 l 1181 1398 l 1208 1370 l 1208 720 l 1020 720 l 993 750 l 990 750 l 990 921 l 840 921 l 814 949 l 811 949 l 811 720 l 624 720 l 597 750 l 594 750 l 594 1402 l 785 1402 l 785 1398 l 811 1370 l 811 1322 l 857 1322 l 857 1318 l 883 1290 l 883 1242 m 780 755 l 780 1036 l 815 1036 l 815 956 l 959 956 l 959 1036 l 996 1036 l 996 755 l 1176 755 l 1176 1396 l 996 1396 l 996 1316 l 924 1316 l 924 1236 l 852 1236 l 852 1316 l 780 1316 l 780 1396 l 600 1396 l 600 755 l 780 755 z "},"¿":{"ha":1016,"x_min":-12,"x_max":968,"o":"m 559 1402 l 559 1394 l 616 1331 l 616 1008 l 559 1008 l 559 1004 l 616 940 l 616 487 l 420 487 l 420 317 l 574 317 l 574 448 l 910 448 l 910 439 l 968 376 l 968 -77 l 53 -77 l -5 -14 l -12 -14 l -12 751 l 104 751 l 104 882 l 222 882 l 222 1012 l 283 1012 l 229 1072 l 222 1072 l 222 1402 l 559 1402 m 235 998 l 235 868 l 117 868 l 117 738 l 0 738 l 0 0 l 898 0 l 898 434 l 586 434 l 586 304 l 351 304 l 351 564 l 547 564 l 547 998 l 235 998 m 235 1389 l 235 1085 l 547 1085 l 547 1389 l 235 1389 z "},"¡":{"ha":430,"x_min":-12,"x_max":382,"o":"m 324 1402 l 324 1394 l 382 1331 l 382 1008 l 324 1008 l 324 1004 l 382 940 l 382 -77 l 53 -77 l -5 -14 l -12 -14 l -12 1012 l 49 1012 l -5 1072 l -12 1072 l -12 1402 l 324 1402 m 0 998 l 0 0 l 312 0 l 312 998 l 0 998 m 0 1389 l 0 1085 l 312 1085 l 312 1389 l 0 1389 z "},"²":{"ha":652,"x_min":66,"x_max":583,"o":"m 298 894 l 557 894 l 557 890 l 585 859 l 585 680 l 100 680 l 71 711 l 68 711 l 68 1085 l 125 1085 l 125 1148 l 354 1148 l 354 1189 l 100 1189 l 71 1220 l 68 1220 l 68 1403 l 500 1403 l 500 1399 l 528 1368 l 528 1339 l 557 1339 l 557 1335 l 585 1304 l 585 998 l 528 998 l 528 934 l 298 934 l 298 894 m 551 718 l 551 887 l 265 887 l 265 972 l 494 972 l 494 1036 l 551 1036 l 551 1332 l 494 1332 l 494 1396 l 74 1396 l 74 1226 l 360 1226 l 360 1142 l 131 1142 l 131 1078 l 74 1078 l 74 718 l 551 718 z "},"³":{"ha":637,"x_min":68,"x_max":570,"o":"m 512 1338 l 542 1338 l 542 1334 l 570 1303 l 570 1051 l 542 1051 l 542 1049 l 570 1017 l 570 738 l 512 738 l 512 674 l 100 674 l 71 705 l 68 705 l 68 892 l 337 892 l 337 930 l 100 930 l 71 962 l 68 962 l 68 1147 l 337 1147 l 337 1187 l 100 1187 l 71 1218 l 68 1218 l 68 1402 l 484 1402 l 484 1398 l 512 1367 l 512 1338 m 478 712 l 478 776 l 536 776 l 536 1046 l 498 1046 l 498 1089 l 536 1089 l 536 1332 l 478 1332 l 478 1396 l 74 1396 l 74 1225 l 343 1225 l 343 1140 l 74 1140 l 74 968 l 343 968 l 343 885 l 74 885 l 74 712 l 478 712 z "},"¹":{"ha":444,"x_min":68,"x_max":376,"o":"m 71 1134 l 68 1134 l 68 1317 l 106 1317 l 106 1360 l 144 1360 l 144 1402 l 348 1402 l 348 1399 l 376 1367 l 376 677 l 176 677 l 148 708 l 144 708 l 144 1103 l 100 1103 l 71 1134 m 342 715 l 342 1396 l 150 1396 l 150 1353 l 112 1353 l 112 1310 l 74 1310 l 74 1141 l 150 1141 l 150 715 l 342 715 z "},"º":{"ha":711,"x_min":66,"x_max":642,"o":"m 299 892 l 412 892 l 412 1187 l 299 1187 l 299 892 m 586 1337 l 615 1337 l 615 1334 l 642 1302 l 642 741 l 586 741 l 586 677 l 156 677 l 129 708 l 124 708 l 124 741 l 99 741 l 71 772 l 67 772 l 67 1337 l 124 1337 l 124 1401 l 557 1401 l 557 1397 l 586 1366 l 586 1337 m 551 715 l 551 779 l 608 779 l 608 1330 l 551 1330 l 551 1394 l 130 1394 l 130 1330 l 73 1330 l 73 779 l 130 779 l 130 715 l 551 715 m 265 885 l 265 1224 l 417 1224 l 417 885 l 265 885 z "},"@":{"ha":1272,"x_min":68,"x_max":1204,"o":"m 598 642 l 674 642 l 674 736 l 598 736 l 598 642 m 323 336 l 977 336 l 977 328 l 1040 264 l 1040 62 l 140 62 l 76 126 l 68 126 l 68 1316 l 1141 1316 l 1141 1308 l 1204 1244 l 1204 368 l 414 368 l 350 431 l 342 431 l 342 1010 l 867 1010 l 867 1002 l 930 939 l 930 642 l 949 642 l 949 1042 l 323 1042 l 323 336 m 963 140 l 963 323 l 245 323 l 245 1119 l 963 1119 l 963 628 l 853 628 l 853 997 l 355 997 l 355 445 l 1127 445 l 1127 1302 l 81 1302 l 81 140 l 963 140 m 521 628 l 521 814 l 688 814 l 688 628 l 521 628 z "},"+":{"ha":675,"x_min":57,"x_max":646,"o":"m 476 785 l 589 785 l 589 777 l 646 713 l 646 507 l 476 507 l 476 317 l 290 317 l 233 381 l 225 381 l 225 507 l 122 507 l 65 571 l 57 571 l 57 785 l 225 785 l 225 972 l 419 972 l 419 964 l 476 901 l 476 785 m 407 395 l 407 585 l 576 585 l 576 772 l 407 772 l 407 959 l 237 959 l 237 772 l 69 772 l 69 585 l 237 585 l 237 395 l 407 395 z "},",":{"ha":444,"x_min":68,"x_max":376,"o":"m 68 -14 l 68 255 l 317 255 l 376 183 l 376 -202 l 244 -202 l 180 -138 l 180 -77 l 133 -77 l 68 -14 m 305 -125 l 305 241 l 80 241 l 80 0 l 193 0 l 193 -125 l 305 -125 z "},"-":{"ha":675,"x_min":57,"x_max":646,"o":"m 65 568 l 57 568 l 57 783 l 589 783 l 589 774 l 646 711 l 646 505 l 122 505 l 65 568 m 576 582 l 576 769 l 69 769 l 69 582 l 576 582 z "},".":{"ha":342,"x_min":49,"x_max":350,"o":"m 56 -14 l 49 -14 l 49 258 l 293 258 l 293 250 l 350 186 l 350 -77 l 114 -77 l 56 -14 m 281 0 l 281 244 l 61 244 l 61 0 l 281 0 z "}," ":{"ha":807,"x_min":0,"x_max":0,"o":""},":":{"ha":448,"x_min":68,"x_max":380,"o":"m 85 -14 l 79 -14 l 79 258 l 323 258 l 323 250 l 380 186 l 380 -77 l 144 -77 l 85 -14 m 311 0 l 311 244 l 91 244 l 91 0 l 311 0 m 75 407 l 68 407 l 68 678 l 312 678 l 312 670 l 369 606 l 369 343 l 133 343 l 75 407 m 300 420 l 300 665 l 80 665 l 80 420 l 300 420 z "},";":{"ha":444,"x_min":68,"x_max":376,"o":"m 75 -14 l 68 -14 l 68 255 l 317 255 l 317 247 l 376 183 l 376 -202 l 244 -202 l 187 -138 l 180 -138 l 180 -77 l 133 -77 l 75 -14 m 305 -125 l 305 241 l 80 241 l 80 0 l 193 0 l 193 -125 l 305 -125 m 80 407 l 73 407 l 73 678 l 317 678 l 317 670 l 374 606 l 374 343 l 138 343 l 80 407 m 305 420 l 305 665 l 85 665 l 85 420 l 305 420 z "},"\"":{"ha":792,"x_min":68,"x_max":724,"o":"m 75 1135 l 68 1135 l 68 1404 l 317 1404 l 317 1396 l 376 1332 l 376 947 l 244 947 l 187 1010 l 180 1010 l 180 1072 l 133 1072 l 75 1135 m 305 1024 l 305 1390 l 80 1390 l 80 1149 l 193 1149 l 193 1024 l 305 1024 m 423 1135 l 416 1135 l 416 1404 l 666 1404 l 666 1396 l 724 1332 l 724 947 l 593 947 l 536 1010 l 529 1010 l 529 1072 l 481 1072 l 423 1135 m 654 1024 l 654 1390 l 429 1390 l 429 1149 l 541 1149 l 541 1024 l 654 1024 z "},"„":{"ha":792,"x_min":68,"x_max":724,"o":"m 75 -14 l 68 -14 l 68 255 l 317 255 l 317 247 l 376 183 l 376 -202 l 244 -202 l 187 -138 l 180 -138 l 180 -77 l 133 -77 l 75 -14 m 305 -125 l 305 241 l 80 241 l 80 0 l 193 0 l 193 -125 l 305 -125 m 423 -14 l 416 -14 l 416 255 l 666 255 l 666 247 l 724 183 l 724 -202 l 593 -202 l 536 -138 l 529 -138 l 529 -77 l 481 -77 l 423 -14 m 654 -125 l 654 241 l 429 241 l 429 0 l 541 0 l 541 -125 l 654 -125 z "},"…":{"ha":1025,"x_min":49,"x_max":1034,"o":"m 56 -14 l 49 -14 l 49 258 l 293 258 l 293 250 l 350 186 l 350 -77 l 114 -77 l 56 -14 m 281 0 l 281 244 l 61 244 l 61 0 l 281 0 m 397 -14 l 391 -14 l 391 258 l 635 258 l 635 250 l 692 186 l 692 -77 l 456 -77 l 397 -14 m 623 0 l 623 244 l 403 244 l 403 0 l 623 0 m 739 -14 l 732 -14 l 732 258 l 977 258 l 977 250 l 1034 186 l 1034 -77 l 798 -77 l 739 -14 m 964 0 l 964 244 l 745 244 l 745 0 l 964 0 z "},"‚":{"ha":444,"x_min":68,"x_max":376,"o":"m 75 -14 l 68 -14 l 68 255 l 317 255 l 317 247 l 376 183 l 376 -202 l 244 -202 l 187 -138 l 180 -138 l 180 -77 l 133 -77 l 75 -14 m 305 -125 l 305 241 l 80 241 l 80 0 l 193 0 l 193 -125 l 305 -125 z "},"ª":{"ha":518,"x_min":68,"x_max":450,"o":"m 71 871 l 68 871 l 68 1402 l 429 1402 l 429 1399 l 450 1375 l 450 847 l 298 847 l 276 871 l 273 871 l 273 994 l 246 994 l 246 847 l 92 847 l 71 871 m 219 876 l 219 1022 l 277 1022 l 277 876 l 424 876 l 424 1397 l 72 1397 l 72 876 l 219 876 m 281 1114 l 281 1142 l 226 1142 l 226 1114 l 198 1114 l 198 1195 l 226 1195 l 226 1223 l 171 1223 l 171 1277 l 226 1277 l 226 1223 l 281 1223 l 281 1277 l 336 1277 l 336 1223 l 281 1223 l 281 1195 l 309 1195 l 309 1114 l 281 1114 z "},"ﬁ":{"ha":1329,"x_min":68,"x_max":1261,"o":"m 446 705 l 837 705 l 837 699 l 883 648 l 883 355 l 446 355 l 446 -62 l 119 -62 l 73 -11 l 68 -11 l 68 1122 l 837 1122 l 837 1115 l 883 1065 l 883 772 l 446 772 l 446 705 m 391 0 l 391 416 l 827 416 l 827 694 l 391 694 l 391 833 l 827 833 l 827 1111 l 77 1111 l 77 0 l 391 0 m 888 -11 l 883 -11 l 883 1122 l 1215 1122 l 1215 1115 l 1261 1065 l 1261 -62 l 935 -62 l 888 -11 m 1206 0 l 1206 1111 l 892 1111 l 892 0 l 1206 0 z "},"ﬂ":{"ha":1766,"x_min":68,"x_max":1698,"o":"m 446 705 l 837 705 l 837 699 l 883 648 l 883 355 l 446 355 l 446 -62 l 119 -62 l 73 -11 l 68 -11 l 68 1122 l 837 1122 l 837 1115 l 883 1065 l 883 772 l 446 772 l 446 705 m 391 0 l 391 416 l 827 416 l 827 694 l 391 694 l 391 833 l 827 833 l 827 1111 l 77 1111 l 77 0 l 391 0 m 1261 289 l 1652 289 l 1652 282 l 1698 231 l 1698 -62 l 935 -62 l 888 -11 l 883 -11 l 883 1122 l 1215 1122 l 1215 1115 l 1261 1065 l 1261 289 m 1643 0 l 1643 278 l 1206 278 l 1206 1111 l 892 1111 l 892 0 l 1643 0 z "},"−":{"ha":750,"x_min":61,"x_max":689,"o":"m 68 583 l 61 583 l 61 784 l 632 784 l 632 776 l 689 712 l 689 519 l 126 519 l 68 583 m 620 597 l 620 770 l 73 770 l 73 597 l 620 597 z "},"$":{"ha":978,"x_min":68,"x_max":910,"o":"m 598 286 l 610 286 l 610 330 l 598 330 l 598 286 m 392 690 l 410 690 l 410 735 l 392 735 l 392 690 m 598 690 l 853 690 l 853 682 l 910 618 l 910 -76 l 598 -76 l 598 -214 l 475 -214 l 416 -151 l 410 -151 l 410 -76 l 133 -76 l 75 -12 l 68 -12 l 68 286 l 410 286 l 410 330 l 133 330 l 75 393 l 68 393 l 68 1096 l 410 1096 l 410 1272 l 541 1272 l 541 1264 l 598 1200 l 598 1096 l 853 1096 l 853 1088 l 910 1024 l 910 735 l 598 735 l 598 690 m 529 273 l 529 407 l 623 407 l 623 273 l 529 273 m 323 812 l 422 812 l 422 677 l 323 677 l 323 812 m 529 -137 l 529 1 l 841 1 l 841 677 l 529 677 l 529 812 l 841 812 l 841 1082 l 529 1082 l 529 1259 l 422 1259 l 422 1082 l 80 1082 l 80 407 l 422 407 l 422 273 l 80 273 l 80 1 l 422 1 l 422 -137 l 529 -137 z "},"¢":{"ha":1020,"x_min":68,"x_max":952,"o":"m 464 285 l 483 285 l 483 736 l 464 736 l 464 285 m 681 285 l 888 285 l 888 277 l 952 213 l 952 -77 l 681 -77 l 681 -214 l 555 -214 l 491 -151 l 483 -151 l 483 -77 l 231 -77 l 167 -14 l 159 -14 l 159 24 l 140 24 l 76 88 l 68 88 l 68 997 l 159 997 l 159 1099 l 483 1099 l 483 1268 l 617 1268 l 617 1260 l 681 1196 l 681 1099 l 888 1099 l 888 1090 l 952 1027 l 952 736 l 681 736 l 681 285 m 387 814 l 496 814 l 496 271 l 387 271 l 387 814 m 604 -137 l 604 0 l 875 0 l 875 271 l 604 271 l 604 814 l 875 814 l 875 1085 l 604 1085 l 604 1255 l 496 1255 l 496 1085 l 172 1085 l 172 983 l 81 983 l 81 102 l 172 102 l 172 0 l 496 0 l 496 -137 l 604 -137 z "},"‘":{"ha":452,"x_min":68,"x_max":384,"o":"m 81 1389 l 81 1023 l 307 1023 l 307 1264 l 194 1264 l 194 1389 l 81 1389 m 208 1402 l 208 1394 l 271 1331 l 271 1278 l 320 1278 l 320 1270 l 384 1206 l 384 945 l 140 945 l 76 1009 l 68 1009 l 68 1402 l 208 1402 z "},"’":{"ha":444,"x_min":68,"x_max":376,"o":"m 75 1067 l 68 1067 l 68 1336 l 317 1336 l 317 1328 l 376 1264 l 376 879 l 244 879 l 187 943 l 180 943 l 180 1004 l 133 1004 l 75 1067 m 305 956 l 305 1322 l 80 1322 l 80 1081 l 193 1081 l 193 956 l 305 956 z "},"“":{"ha":750,"x_min":68,"x_max":682,"o":"m 380 1335 l 380 968 l 605 968 l 605 1210 l 492 1210 l 492 1335 l 380 1335 m 81 1389 l 81 1023 l 307 1023 l 307 1264 l 194 1264 l 194 1389 l 81 1389 m 506 1348 l 506 1340 l 570 1276 l 570 1223 l 618 1223 l 618 1215 l 682 1152 l 682 891 l 438 891 l 384 945 l 140 945 l 76 1009 l 68 1009 l 68 1402 l 208 1402 l 208 1394 l 271 1331 l 271 1278 l 320 1278 l 320 1270 l 366 1223 l 366 1348 l 506 1348 z "},"”":{"ha":792,"x_min":68,"x_max":724,"o":"m 75 1135 l 68 1135 l 68 1404 l 317 1404 l 317 1396 l 376 1332 l 376 947 l 244 947 l 187 1010 l 180 1010 l 180 1072 l 133 1072 l 75 1135 m 305 1024 l 305 1390 l 80 1390 l 80 1149 l 193 1149 l 193 1024 l 305 1024 m 423 1067 l 416 1067 l 416 1336 l 666 1336 l 666 1328 l 724 1264 l 724 879 l 593 879 l 536 943 l 529 943 l 529 1004 l 481 1004 l 423 1067 m 654 956 l 654 1322 l 429 1322 l 429 1081 l 541 1081 l 541 956 l 654 956 z "},"°":{"ha":681,"x_min":68,"x_max":613,"o":"m 288 1031 l 393 1031 l 393 1246 l 288 1246 l 288 1031 m 560 1355 l 587 1355 l 587 1354 l 613 1331 l 613 920 l 560 920 l 560 873 l 152 873 l 126 897 l 122 897 l 122 920 l 98 920 l 71 943 l 68 943 l 68 1355 l 122 1355 l 122 1402 l 532 1402 l 532 1400 l 560 1378 l 560 1355 m 526 901 l 526 948 l 581 948 l 581 1351 l 526 1351 l 526 1397 l 127 1397 l 127 1351 l 73 1351 l 73 948 l 127 948 l 127 901 l 526 901 m 255 1025 l 255 1274 l 400 1274 l 400 1025 l 255 1025 z "},"¤":{"ha":1211,"x_min":68,"x_max":1143,"o":"m 524 336 l 688 336 l 688 732 l 524 732 l 524 336 m 75 -11 l 68 -11 l 68 190 l 159 190 l 159 880 l 125 880 l 75 932 l 68 932 l 68 1131 l 267 1131 l 267 1124 l 319 1074 l 319 1040 l 892 1040 l 892 1131 l 1092 1131 l 1092 1124 l 1143 1074 l 1143 880 l 1053 880 l 1053 190 l 1092 190 l 1092 183 l 1143 130 l 1143 -62 l 949 -62 l 899 -11 l 892 -11 l 892 27 l 319 27 l 319 -62 l 125 -62 l 75 -11 m 463 324 l 463 795 l 699 795 l 699 324 l 463 324 m 170 941 l 170 178 l 79 178 l 79 0 l 258 0 l 258 91 l 902 91 l 902 0 l 1082 0 l 1082 178 l 990 178 l 990 941 l 1082 941 l 1082 1120 l 902 1120 l 902 1029 l 258 1029 l 258 1120 l 79 1120 l 79 941 l 170 941 z "},"Ø":{"ha":1320,"x_min":68,"x_max":1252,"o":"m 682 361 l 770 361 q 770 450 770 406 q 769 540 770 495 l 728 540 l 728 387 l 682 387 l 682 361 m 549 785 l 591 785 l 591 939 l 637 939 l 637 964 l 549 964 l 549 785 m 76 -14 l 68 -14 l 68 1402 l 1188 1402 l 1188 1394 l 1252 1331 l 1252 -77 l 140 -77 l 76 -14 m 472 1042 l 651 1042 l 651 925 l 605 925 l 605 772 l 560 772 l 560 617 l 517 617 l 517 464 l 472 464 l 472 1042 m 605 347 l 605 464 l 651 464 l 651 617 l 694 617 l 694 772 l 739 772 l 739 925 l 783 925 l 783 1042 l 784 1042 l 784 347 l 605 347 m 1175 0 l 1175 1389 l 81 1389 l 81 0 l 1175 0 z "},"ø":{"ha":1320,"x_min":68,"x_max":1252,"o":"m 685 361 l 770 361 l 770 544 l 731 544 l 731 389 l 685 389 l 685 361 m 549 788 l 594 788 l 594 943 l 640 943 l 640 964 l 549 964 l 549 788 m 1135 1272 l 1188 1272 l 1188 1264 l 1252 1200 l 1252 53 l 1135 53 l 1135 -77 l 256 -77 l 193 -14 l 184 -14 l 184 53 l 140 53 l 76 117 l 68 117 l 68 1272 l 184 1272 l 184 1402 l 1072 1402 l 1072 1394 l 1135 1331 l 1135 1272 m 608 347 l 608 467 l 654 467 l 654 621 l 697 621 l 697 774 l 743 774 l 743 929 l 784 929 l 784 347 l 608 347 m 472 1042 l 654 1042 l 654 929 l 608 929 l 608 774 l 563 774 l 563 621 l 518 621 l 518 467 l 473 467 l 472 1042 m 1058 0 l 1058 130 l 1175 130 l 1175 1259 l 1058 1259 l 1058 1389 l 198 1389 l 198 1259 l 81 1259 l 81 130 l 198 130 l 198 0 l 1058 0 z "},"¶":{"ha":1748,"x_min":68,"x_max":1681,"o":"m 423 758 l 423 910 l 559 910 l 559 758 l 423 758 m 901 0 l 901 910 l 1024 910 l 1024 0 l 1364 0 l 1364 910 l 1603 910 l 1603 1213 l 81 1213 l 81 454 l 559 454 l 559 0 l 901 0 m 76 441 l 68 441 l 68 1226 l 1617 1226 l 1617 1218 l 1681 1154 l 1681 833 l 1442 833 l 1442 -77 l 1082 -77 l 1019 -14 l 1010 -14 l 1010 833 l 978 833 l 978 -77 l 617 -77 l 553 -14 l 545 -14 l 545 377 l 140 377 l 76 441 m 500 772 l 545 772 l 545 833 l 500 833 l 500 772 z "},"¥":{"ha":1160,"x_min":68,"x_max":1092,"o":"m 553 736 l 608 736 l 608 842 l 703 842 l 703 1123 l 1040 1123 l 1040 1116 l 1092 1065 l 1092 557 l 966 557 l 966 452 l 869 452 l 869 345 l 836 345 l 868 312 l 868 136 l 831 136 l 868 99 l 868 -77 l 350 -77 l 298 -26 l 292 -26 l 292 157 l 330 157 l 298 187 l 292 187 l 292 370 l 323 370 l 296 397 l 290 397 l 290 452 l 254 452 l 202 503 l 194 503 l 194 557 l 126 557 l 75 609 l 68 609 l 68 1123 l 407 1123 l 407 1116 l 458 1065 l 458 842 l 502 842 l 502 834 l 553 783 l 553 736 m 807 -15 l 807 146 l 712 146 l 712 199 l 807 199 l 807 359 l 712 359 l 712 408 l 807 408 l 807 514 l 903 514 l 903 618 l 1029 618 l 1029 1112 l 712 1112 l 712 830 l 617 830 l 617 724 l 490 724 l 490 830 l 396 830 l 396 1112 l 79 1112 l 79 618 l 205 618 l 205 514 l 301 514 l 301 408 l 396 408 l 396 359 l 304 359 l 304 199 l 396 199 l 396 146 l 304 146 l 304 -15 l 807 -15 z "},"ƒ":{"ha":1188,"x_min":54,"x_max":1198,"o":"m 760 708 l 1134 708 l 1134 700 l 1198 636 l 1198 339 l 760 339 l 760 -77 l 126 -77 l 62 -14 l 54 -14 l 54 259 l 357 259 l 357 1124 l 1134 1124 l 1134 1116 l 1198 1053 l 1198 755 l 760 755 l 760 708 m 682 0 l 682 416 l 1120 416 l 1120 694 l 682 694 l 682 833 l 1120 833 l 1120 1111 l 370 1111 l 370 245 l 68 245 l 68 0 l 682 0 z "},"‰":{"ha":1223,"x_min":68,"x_max":1156,"o":"m 163 -16 l 155 -16 l 155 171 l 201 171 l 201 324 l 248 324 l 248 479 l 293 479 l 293 633 l 339 633 l 339 787 l 385 787 l 385 941 l 433 941 l 433 1096 l 479 1096 l 479 1249 l 524 1249 l 524 1404 l 693 1404 l 693 1393 l 760 1318 l 760 1142 l 713 1142 l 713 987 l 666 987 l 666 834 l 621 834 l 621 680 l 575 680 l 575 525 l 529 525 l 529 372 l 481 372 l 481 217 l 435 217 l 435 62 l 391 62 l 391 -91 l 232 -91 l 163 -16 m 308 0 l 308 155 l 354 155 l 354 309 l 400 309 l 400 463 l 446 463 l 446 617 l 494 617 l 494 772 l 538 772 l 538 925 l 585 925 l 585 1080 l 632 1080 l 632 1234 l 678 1234 l 678 1388 l 538 1388 l 538 1234 l 494 1234 l 494 1080 l 446 1080 l 446 925 l 400 925 l 400 772 l 354 772 l 354 617 l 308 617 l 308 463 l 262 463 l 262 309 l 216 309 l 216 155 l 170 155 l 170 0 l 308 0 m 563 -14 l 556 -14 l 556 258 l 800 258 l 800 250 l 857 186 l 857 -77 l 621 -77 l 563 -14 m 788 0 l 788 244 l 568 244 l 568 0 l 788 0 m 75 1130 l 68 1130 l 68 1401 l 312 1401 l 312 1393 l 369 1329 l 369 1066 l 133 1066 l 75 1130 m 300 1143 l 300 1388 l 80 1388 l 80 1143 l 300 1143 m 861 -14 l 854 -14 l 854 258 l 1099 258 l 1099 250 l 1156 186 l 1156 -77 l 920 -77 l 861 -14 m 1086 0 l 1086 244 l 867 244 l 867 0 l 1086 0 z "},"=":{"ha":819,"x_min":68,"x_max":751,"o":"m 76 507 l 68 507 l 68 732 l 114 732 l 76 770 l 68 770 l 68 996 l 688 996 l 688 987 l 751 924 l 751 707 l 705 707 l 751 661 l 751 444 l 140 444 l 76 507 m 674 784 l 674 982 l 81 982 l 81 784 l 674 784 m 674 521 l 674 719 l 81 719 l 81 521 l 674 521 z "},"±":{"ha":764,"x_min":68,"x_max":696,"o":"m 491 1145 l 604 1145 l 604 1137 l 661 1073 l 661 867 l 491 867 l 491 677 l 305 677 l 248 741 l 240 741 l 240 867 l 137 867 l 80 930 l 72 930 l 72 1145 l 240 1145 l 240 1332 l 434 1332 l 434 1324 l 491 1260 l 491 1145 m 422 754 l 422 944 l 591 944 l 591 1131 l 422 1131 l 422 1318 l 252 1318 l 252 1131 l 84 1131 l 84 944 l 252 944 l 252 754 l 422 754 m 75 327 l 68 327 l 68 528 l 639 528 l 639 519 l 696 456 l 696 263 l 133 263 l 75 327 m 627 340 l 627 514 l 80 514 l 80 340 l 627 340 z "},"µ":{"ha":1039,"x_min":68,"x_max":971,"o":"m 471 292 l 568 292 l 568 1124 l 907 1124 l 907 1116 l 971 1053 l 971 -77 l 471 -77 l 471 -355 l 140 -355 l 76 -292 l 68 -292 l 68 1124 l 407 1124 l 407 1116 l 471 1053 l 471 292 m 393 -278 l 393 0 l 894 0 l 894 1111 l 582 1111 l 582 278 l 393 278 l 393 1111 l 81 1111 l 81 -278 l 393 -278 z "},"·":{"ha":437,"x_min":68,"x_max":369,"o":"m 75 556 l 68 556 l 68 827 l 312 827 l 312 819 l 369 755 l 369 492 l 133 492 l 75 556 m 300 570 l 300 814 l 80 814 l 80 570 l 300 570 z "},"£":{"ha":1119,"x_min":68,"x_max":1051,"o":"m 545 278 l 1000 278 l 1000 271 l 1051 220 l 1051 -77 l 214 -77 l 163 -26 l 156 -26 l 156 406 l 126 406 l 75 457 l 68 457 l 68 651 l 156 651 l 156 1015 l 251 1015 l 251 1120 l 925 1120 l 925 1114 l 977 1062 l 977 765 l 545 765 l 545 651 l 690 651 l 690 644 l 742 591 l 742 406 l 545 406 l 545 278 m 989 -15 l 989 266 l 483 266 l 483 469 l 680 469 l 680 640 l 483 640 l 483 829 l 913 829 l 913 1109 l 262 1109 l 262 1005 l 167 1005 l 167 640 l 79 640 l 79 469 l 167 469 l 167 -15 l 989 -15 z "},"€":{"ha":1023,"x_min":68,"x_max":955,"o":"m 453 285 l 903 285 l 903 278 l 955 227 l 955 -66 l 218 -66 l 167 -15 l 161 -15 l 161 38 l 125 38 l 75 90 l 68 90 l 68 1015 l 161 1015 l 161 1119 l 903 1119 l 903 1112 l 955 1062 l 955 768 l 453 768 l 453 750 l 644 750 l 644 743 l 694 692 l 694 518 l 658 518 l 694 481 l 694 307 l 453 307 l 453 285 m 892 -4 l 892 273 l 391 273 l 391 369 l 632 369 l 632 528 l 391 528 l 391 581 l 632 581 l 632 738 l 391 738 l 391 830 l 892 830 l 892 1108 l 172 1108 l 172 1004 l 79 1004 l 79 100 l 172 100 l 172 -4 l 892 -4 z "},"÷":{"ha":764,"x_min":56,"x_max":684,"o":"m 229 264 l 222 263 l 222 534 l 467 534 l 467 528 l 524 464 l 524 201 l 288 201 l 229 264 m 454 278 l 454 522 l 235 522 l 235 278 l 454 278 m 202 861 l 195 861 l 195 1133 l 439 1133 l 439 1124 l 496 1061 l 496 798 l 260 798 l 202 861 m 427 875 l 427 1119 l 208 1119 l 208 875 l 427 875 m 62 597 l 56 597 l 56 798 l 627 798 l 627 789 l 684 726 l 684 533 l 121 533 l 62 597 m 614 610 l 614 784 l 68 784 l 68 610 l 614 610 z "},"×":{"ha":892,"x_min":68,"x_max":825,"o":"m 528 427 l 528 429 l 528 490 l 365 490 q 366 395 365 444 q 366 304 366 347 l 121 302 l 75 346 l 71 346 l 69 589 l 182 589 l 182 699 l 180 831 l 118 831 l 73 876 l 68 876 l 68 1120 l 319 1120 l 319 1115 l 363 1070 l 363 933 q 393 933 378 933 q 423 935 407 933 q 474 935 449 935 q 526 936 499 936 q 527 980 526 958 q 528 1027 528 1002 l 528 1120 l 777 1120 l 777 1115 l 822 1070 l 822 831 l 708 831 q 709 712 708 770 q 709 593 709 654 l 719 593 q 749 593 734 593 q 779 594 765 594 l 779 589 l 823 544 l 825 305 l 579 304 l 534 349 l 529 349 l 528 427 m 537 430 l 538 358 l 770 359 l 769 586 l 655 585 l 655 886 l 768 886 l 768 1111 l 536 1111 l 536 926 l 309 924 l 309 1111 l 77 1111 l 77 886 l 190 886 l 190 699 l 190 581 l 79 581 l 80 355 l 311 357 l 309 544 l 536 544 l 536 430 l 537 430 z "},"•":{"ha":930,"x_min":68,"x_max":863,"o":"m 212 163 l 212 231 l 144 231 l 144 237 l 136 237 l 136 305 l 68 305 l 68 982 l 144 982 l 144 1057 l 720 1057 l 720 989 l 788 989 l 788 982 l 795 982 l 795 914 l 863 914 l 863 237 l 788 237 l 788 163 l 212 163 m 707 244 l 707 319 l 781 319 l 781 968 l 707 968 l 707 1043 l 157 1043 l 157 968 l 81 968 l 81 319 l 157 319 l 157 244 l 707 244 m 511 423 l 511 498 l 362 498 l 362 423 l 285 423 l 285 646 l 362 646 l 362 722 l 210 722 l 210 869 l 362 869 l 362 722 l 511 722 l 511 869 l 663 869 l 663 722 l 511 722 l 511 646 l 589 646 l 589 423 l 511 423 z "},"®":{"ha":1450,"x_min":68,"x_max":1382,"o":"m 633 823 l 625 823 l 625 972 l 774 972 l 774 964 l 838 901 l 838 760 l 697 760 l 633 823 m 968 662 l 960 662 l 960 750 l 1051 750 l 1051 1124 l 412 1124 l 412 243 l 625 243 l 625 608 l 774 608 l 774 600 l 838 536 l 838 243 l 1051 243 l 1051 598 l 1032 598 l 968 662 m 1251 1272 l 1318 1272 l 1318 1264 l 1382 1200 l 1382 46 l 1251 46 l 1251 -85 l 271 -85 l 208 -22 l 199 -22 l 199 46 l 140 46 l 76 110 l 68 110 l 68 1272 l 199 1272 l 199 1404 l 1187 1404 l 1187 1396 l 1251 1332 l 1251 1272 m 335 229 l 335 1202 l 1065 1202 l 1065 736 l 974 736 l 974 675 l 1065 675 l 1065 229 l 761 229 l 761 594 l 639 594 l 639 229 l 335 229 m 761 837 l 761 959 l 639 959 l 639 837 l 761 837 m 1173 -8 l 1173 123 l 1305 123 l 1305 1259 l 1173 1259 l 1173 1390 l 213 1390 l 213 1259 l 81 1259 l 81 123 l 213 123 l 213 -8 l 1173 -8 z "},"©":{"ha":1443,"x_min":68,"x_max":1375,"o":"m 610 422 l 602 422 l 602 940 l 1093 940 l 1093 1095 l 387 1095 l 387 205 l 1093 205 l 1093 358 l 674 358 l 610 422 m 1245 1271 l 1312 1271 l 1312 1264 l 1375 1200 l 1375 52 l 1245 52 l 1245 -79 l 270 -79 l 206 -16 l 198 -16 l 198 52 l 140 52 l 76 115 l 68 115 l 68 1271 l 198 1271 l 198 1402 l 1181 1402 l 1181 1394 l 1245 1331 l 1245 1271 m 309 191 l 309 1172 l 1107 1172 l 1107 926 l 616 926 l 616 435 l 1107 435 l 1107 191 l 309 191 m 1168 -3 l 1168 129 l 1298 129 l 1298 1259 l 1168 1259 l 1168 1389 l 212 1389 l 212 1259 l 81 1259 l 81 129 l 212 129 l 212 -3 l 1168 -3 z "},"&":{"ha":1599,"x_min":68,"x_max":1531,"o":"m 549 361 l 776 361 l 776 444 l 549 444 l 549 361 m 549 882 l 1468 886 l 1468 878 l 1531 814 l 1531 448 l 1257 448 l 1257 -79 l 140 -77 l 76 -14 l 68 -14 l 68 1402 l 1032 1402 l 1032 1394 l 1096 1331 l 1096 964 l 549 964 l 549 882 m 472 521 l 789 521 l 789 347 l 472 347 l 472 521 m 1180 -1 l 1180 525 l 1454 525 l 1454 872 l 472 868 l 472 1042 l 1019 1042 l 1019 1389 l 81 1389 l 81 0 l 1180 -1 z "},"#":{"ha":1614,"x_min":68,"x_max":1546,"o":"m 700 553 l 910 553 l 910 764 l 700 764 l 700 553 m 1240 553 l 1478 553 l 1478 544 l 1546 477 l 1546 228 l 1240 228 l 1240 -79 l 986 -79 l 918 -11 l 910 -11 l 910 228 l 700 228 l 700 -79 l 450 -79 l 382 -11 l 374 -11 l 374 228 l 144 228 l 76 296 l 68 296 l 68 553 l 374 553 l 374 764 l 144 764 l 76 831 l 68 831 l 68 1093 l 374 1093 l 374 1400 l 632 1400 l 632 1392 l 700 1324 l 700 1093 l 910 1093 l 910 1400 l 1172 1400 l 1172 1392 l 1240 1324 l 1240 1093 l 1478 1093 l 1478 1085 l 1546 1017 l 1546 764 l 1240 764 l 1240 553 m 618 3 l 618 309 l 925 309 l 925 3 l 1158 3 l 1158 309 l 1465 309 l 1465 538 l 1158 538 l 1158 845 l 1465 845 l 1465 1078 l 1158 1078 l 1158 1385 l 925 1385 l 925 1078 l 618 1078 l 618 1385 l 389 1385 l 389 1078 l 83 1078 l 83 845 l 389 845 l 389 538 l 83 538 l 83 309 l 389 309 l 389 3 l 618 3 m 618 538 l 618 845 l 925 845 l 925 538 l 618 538 z "},"†":{"ha":708,"x_min":68,"x_max":640,"o":"m 479 765 l 576 765 l 576 757 l 640 693 l 640 513 l 479 513 l 479 -76 l 301 -76 l 237 -12 l 229 -12 l 229 513 l 140 513 l 76 576 l 68 576 l 68 765 l 229 765 l 229 1405 l 415 1405 l 415 1397 l 479 1333 l 479 765 m 401 1 l 401 590 l 563 590 l 563 751 l 401 751 l 401 1392 l 243 1392 l 243 751 l 81 751 l 81 590 l 243 590 l 243 1 l 401 1 z "},"‡":{"ha":712,"x_min":68,"x_max":644,"o":"m 481 882 l 581 882 l 581 873 l 644 810 l 644 629 l 609 629 l 644 594 l 644 414 l 481 414 l 481 -72 l 302 -72 l 239 -8 l 231 -8 l 231 414 l 140 414 l 76 477 l 68 477 l 68 666 l 103 666 l 76 693 l 68 693 l 68 882 l 231 882 l 231 1421 l 418 1421 l 418 1413 l 481 1350 l 481 882 m 404 5 l 404 491 l 567 491 l 567 652 l 404 652 l 404 707 l 567 707 l 567 868 l 404 868 l 404 1408 l 244 1408 l 244 868 l 81 868 l 81 707 l 244 707 l 244 652 l 81 652 l 81 491 l 244 491 l 244 5 l 404 5 z "},"§":{"ha":1215,"x_min":-14,"x_max":1169,"o":"m 514 887 l 1105 887 l 1105 879 l 1169 815 l 1169 -77 l 58 -77 l -5 -14 l -14 -14 l -14 363 l 642 363 l 642 446 l 58 446 l -5 510 l -14 510 l -14 1411 l 1105 1411 l 1105 1402 l 1169 1339 l 1169 971 l 514 971 l 514 887 m 551 526 l 551 583 l 437 583 l 437 526 l 378 526 l 378 699 l 437 699 l 437 755 l 321 755 l 321 871 l 437 871 l 437 755 l 551 755 l 551 871 l 666 871 l 666 755 l 551 755 l 551 699 l 609 699 l 609 526 l 551 526 m 1092 0 l 1092 873 l 437 873 l 437 1048 l 1092 1048 l 1092 1397 l 0 1397 l 0 524 l 655 524 l 655 350 l 0 350 l 0 0 l 1092 0 z "},"¦":{"ha":391,"x_min":68,"x_max":323,"o":"m 76 758 l 68 758 l 68 1408 l 259 1408 l 259 1400 l 323 1336 l 323 694 l 140 694 l 76 758 m 76 -15 l 68 -15 l 68 635 l 259 635 l 259 627 l 323 563 l 323 -79 l 140 -79 l 76 -15 m 245 -1 l 245 621 l 81 621 l 81 -1 l 245 -1 m 245 772 l 245 1394 l 81 1394 l 81 772 l 245 772 z "},"*":{"ha":1265,"x_min":68,"x_max":1198,"o":"m 518 827 l 685 826 l 685 656 l 517 656 l 518 827 m 1120 827 l 1120 996 l 947 996 l 947 827 l 1120 827 m 685 225 l 863 225 l 863 397 l 685 397 l 685 225 m 776 994 l 685 994 l 685 1066 l 861 1066 l 861 1240 l 685 1240 l 685 1066 l 517 1066 l 517 1240 l 340 1240 l 340 1066 l 517 1066 l 517 994 l 426 994 l 426 910 l 343 910 l 342 829 l 255 827 l 255 996 l 81 996 l 81 827 l 255 827 l 256 656 l 84 656 l 84 479 l 258 479 l 256 656 l 343 655 l 343 563 l 426 563 l 426 479 l 517 479 l 517 397 l 343 397 l 343 222 l 517 222 l 517 397 l 685 397 l 685 479 l 777 479 l 779 564 l 861 564 l 861 655 l 947 656 l 947 479 l 1120 479 l 1120 656 l 947 656 l 947 827 l 860 827 l 860 910 l 777 910 l 776 994 m 671 320 l 594 320 l 594 145 l 401 145 l 338 209 l 330 209 l 330 401 l 142 401 l 79 465 l 71 465 l 71 670 l 243 670 l 243 741 l 243 750 l 140 750 l 76 814 l 68 814 l 68 1009 l 269 1009 l 269 1001 l 332 937 l 332 924 l 412 924 l 412 989 l 399 989 l 335 1053 l 327 1053 l 327 1253 l 530 1253 l 530 1245 l 594 1181 l 594 1080 l 671 1080 l 671 1253 l 875 1253 l 875 1245 l 939 1181 l 939 1009 l 1134 1009 l 1134 1001 l 1198 937 l 1198 750 l 1024 750 l 1024 670 l 1134 670 l 1134 662 l 1198 598 l 1198 401 l 1005 401 l 941 465 l 933 465 l 933 487 l 856 487 q 855 449 856 468 q 854 411 854 430 l 876 411 l 876 403 l 940 339 l 940 148 l 743 148 l 680 212 l 671 212 l 671 320 m 338 549 l 334 549 q 334 479 334 514 q 335 411 335 445 l 475 411 l 420 465 l 412 465 l 412 486 l 401 486 l 338 549 m 853 924 l 873 924 l 873 916 l 933 856 l 933 989 l 800 989 l 853 936 l 853 924 m 594 670 l 671 670 l 671 749 q 634 750 652 750 q 595 750 616 750 l 594 670 z "},"(":{"ha":715,"x_min":68,"x_max":647,"o":"m 68 1100 l 155 1100 l 155 1230 l 285 1230 l 285 1404 l 583 1404 l 583 1396 l 647 1332 l 647 918 l 473 918 l 473 787 l 345 787 l 345 530 l 410 530 l 410 522 l 473 458 l 473 399 l 583 399 l 583 391 l 647 328 l 647 -75 l 357 -75 l 293 -12 l 285 -12 l 285 99 l 225 99 l 163 161 l 155 161 l 155 229 l 140 229 l 76 293 l 68 293 l 68 1100 m 81 307 l 167 307 l 167 175 l 298 175 l 298 1 l 570 1 l 570 385 l 396 385 l 396 517 l 267 517 l 267 864 l 396 864 l 396 994 l 570 994 l 570 1390 l 298 1390 l 298 1217 l 167 1217 l 167 1086 l 81 1086 l 81 307 z "},")":{"ha":719,"x_min":73,"x_max":651,"o":"m 587 1086 l 651 1024 l 651 228 l 566 228 l 566 98 l 435 98 l 435 -76 l 145 -76 l 81 -12 l 73 -12 l 73 396 l 247 396 l 247 528 l 376 528 l 376 784 l 317 784 l 255 846 l 247 846 l 247 914 l 145 914 l 81 977 l 73 977 l 73 1398 l 372 1398 l 372 1390 l 435 1328 l 435 1225 l 502 1225 l 502 1217 l 566 1154 l 566 1095 l 587 1095 l 587 1086 m 575 1081 l 488 1081 l 488 1211 l 358 1211 l 358 1385 l 87 1385 l 87 990 l 260 990 l 260 860 l 389 860 l 389 514 l 260 514 l 260 384 l 87 384 l 87 0 l 358 0 l 358 174 l 488 174 l 488 304 l 575 304 l 575 1081 z "},"<":{"ha":1157,"x_min":68,"x_max":1089,"o":"m 71 993 l 201 991 l 201 1122 l 374 1122 l 374 1252 l 1025 1248 l 1025 1240 l 1089 1176 l 1088 735 l 507 727 l 507 600 l 1024 597 l 1024 589 l 1088 525 l 1086 72 l 444 76 l 380 140 l 372 140 l 372 206 l 270 206 l 206 270 l 198 270 l 198 336 q 168 337 183 336 q 140 338 153 338 l 76 401 l 68 401 l 71 993 m 81 415 l 212 414 l 212 283 l 385 283 l 385 153 l 1009 149 l 1010 583 l 430 587 l 430 804 l 1010 812 l 1012 1234 l 388 1238 l 388 1108 l 214 1108 l 214 978 l 84 979 l 81 415 z "},">":{"ha":1157,"x_min":68,"x_max":1089,"o":"m 1023 985 l 1086 921 l 1089 338 l 959 336 l 959 206 l 785 206 l 785 76 l 142 72 l 79 136 l 71 136 l 69 597 l 650 601 l 650 727 l 141 735 l 77 799 l 69 799 l 68 1248 l 719 1252 l 719 1244 l 783 1180 l 783 1122 l 892 1122 l 892 1114 l 956 1050 l 956 993 l 1023 993 l 1023 985 m 1009 979 l 879 978 l 879 1108 l 705 1108 l 705 1238 l 81 1234 l 83 812 l 663 804 l 663 587 l 83 583 l 84 149 l 708 153 l 708 283 l 882 283 l 882 414 l 1012 415 l 1009 979 z "}}}
